<svg width="40" height="40" viewBox="0 0 40 40" fill="none" xmlns="http://www.w3.org/2000/svg">
<path d="M0 28.5714C0 27.8137 0.301019 27.0869 0.836838 26.5511C1.37266 26.0153 2.09938 25.7143 2.85714 25.7143H8.57143C9.32919 25.7143 10.0559 26.0153 10.5917 26.5511C11.1276 27.0869 11.4286 27.8137 11.4286 28.5714V37.1429C11.4286 37.9006 11.1276 38.6273 10.5917 39.1632C10.0559 39.699 9.32919 40 8.57143 40H2.85714C2.09938 40 1.37266 39.699 0.836838 39.1632C0.301019 38.6273 0 37.9006 0 37.1429V28.5714ZM14.2857 17.1429C14.2857 16.3851 14.5867 15.6584 15.1226 15.1226C15.6584 14.5867 16.3851 14.2857 17.1429 14.2857H22.8571C23.6149 14.2857 24.3416 14.5867 24.8774 15.1226C25.4133 15.6584 25.7143 16.3851 25.7143 17.1429V37.1429C25.7143 37.9006 25.4133 38.6273 24.8774 39.1632C24.3416 39.699 23.6149 40 22.8571 40H17.1429C16.3851 40 15.6584 39.699 15.1226 39.1632C14.5867 38.6273 14.2857 37.9006 14.2857 37.1429V17.1429ZM28.5714 2.85714C28.5714 2.09938 28.8724 1.37266 29.4083 0.836838C29.9441 0.301019 30.6708 0 31.4286 0H37.1429C37.9006 0 38.6273 0.301019 39.1632 0.836838C39.699 1.37266 40 2.09938 40 2.85714V37.1429C40 37.9006 39.699 38.6273 39.1632 39.1632C38.6273 39.699 37.9006 40 37.1429 40H31.4286C30.6708 40 29.9441 39.699 29.4083 39.1632C28.8724 38.6273 28.5714 37.9006 28.5714 37.1429V2.85714Z" fill="#6D4C41"/>
</svg>
