<svg width="30" height="15" viewBox="0 0 30 15" fill="none" xmlns="http://www.w3.org/2000/svg">
<path d="M3.46154 15C2.54348 15 1.66303 14.2098 1.01386 12.8033C0.364697 11.3968 0 9.48912 0 7.5C0 5.51088 0.364697 3.60322 1.01386 2.1967C1.66303 0.790175 2.54348 0 3.46154 0C4.3796 0 5.26005 0.790175 5.90922 2.1967C6.55838 3.60322 6.92308 5.51088 6.92308 7.5C6.92308 9.48912 6.55838 11.3968 5.90922 12.8033C5.26005 14.2098 4.3796 15 3.46154 15ZM15 15C14.0819 15 13.2015 14.2098 12.5523 12.8033C11.9032 11.3968 11.5385 9.48912 11.5385 7.5C11.5385 5.51088 11.9032 3.60322 12.5523 2.1967C13.2015 0.790175 14.0819 0 15 0C15.9181 0 16.7985 0.790175 17.4477 2.1967C18.0968 3.60322 18.4615 5.51088 18.4615 7.5C18.4615 9.48912 18.0968 11.3968 17.4477 12.8033C16.7985 14.2098 15.9181 15 15 15ZM26.5385 15C25.6204 15 24.7399 14.2098 24.0908 12.8033C23.4416 11.3968 23.0769 9.48912 23.0769 7.5C23.0769 5.51088 23.4416 3.60322 24.0908 2.1967C24.7399 0.790175 25.6204 0 26.5385 0C27.4565 0 28.337 0.790175 28.9861 2.1967C29.6353 3.60322 30 5.51088 30 7.5C30 9.48912 29.6353 11.3968 28.9861 12.8033C28.337 14.2098 27.4565 15 26.5385 15Z" fill="#6D4C41"/>
</svg>
