<svg width="1108" height="93" viewBox="0 0 1108 93" fill="none" xmlns="http://www.w3.org/2000/svg">
<path d="M166.979 17.78C166.299 17.78 165.719 17.5467 165.239 17.08C164.772 16.6 164.539 16.02 164.539 15.34C164.539 14.6467 164.772 14.0667 165.239 13.6C165.719 13.12 166.299 12.88 166.979 12.88C167.672 12.88 168.259 13.12 168.739 13.6C169.219 14.0667 169.459 14.6467 169.459 15.34C169.459 16.02 169.219 16.6 168.739 17.08C168.259 17.5467 167.672 17.78 166.979 17.78ZM185.36 8.06V22H183.54V8.06H185.36ZM193.802 10.84C195.135 10.84 196.215 11.2467 197.042 12.06C197.869 12.86 198.282 14.02 198.282 15.54V22H196.482V15.8C196.482 14.7067 196.209 13.8733 195.662 13.3C195.115 12.7133 194.369 12.42 193.422 12.42C192.462 12.42 191.695 12.72 191.122 13.32C190.562 13.92 190.282 14.7933 190.282 15.94V22H188.462V11.04H190.282V12.6C190.642 12.04 191.129 11.6067 191.742 11.3C192.369 10.9933 193.055 10.84 193.802 10.84ZM205.715 12.54H203.415V22H201.595V12.54H200.175V11.04H201.595V10.26C201.595 9.03333 201.908 8.14 202.535 7.58C203.175 7.00667 204.195 6.72 205.595 6.72V8.24C204.795 8.24 204.228 8.4 203.895 8.72C203.575 9.02667 203.415 9.54 203.415 10.26V11.04H205.715V12.54ZM212.617 22.18C211.59 22.18 210.657 21.9467 209.817 21.48C208.99 21.0133 208.337 20.3533 207.857 19.5C207.39 18.6333 207.157 17.6333 207.157 16.5C207.157 15.38 207.397 14.3933 207.877 13.54C208.37 12.6733 209.037 12.0133 209.877 11.56C210.717 11.0933 211.657 10.86 212.697 10.86C213.737 10.86 214.677 11.0933 215.517 11.56C216.357 12.0133 217.017 12.6667 217.497 13.52C217.99 14.3733 218.237 15.3667 218.237 16.5C218.237 17.6333 217.984 18.6333 217.477 19.5C216.984 20.3533 216.31 21.0133 215.457 21.48C214.604 21.9467 213.657 22.18 212.617 22.18ZM212.617 20.58C213.27 20.58 213.884 20.4267 214.457 20.12C215.03 19.8133 215.49 19.3533 215.837 18.74C216.197 18.1267 216.377 17.38 216.377 16.5C216.377 15.62 216.204 14.8733 215.857 14.26C215.51 13.6467 215.057 13.1933 214.497 12.9C213.937 12.5933 213.33 12.44 212.677 12.44C212.01 12.44 211.397 12.5933 210.837 12.9C210.29 13.1933 209.85 13.6467 209.517 14.26C209.184 14.8733 209.017 15.62 209.017 16.5C209.017 17.3933 209.177 18.1467 209.497 18.76C209.83 19.3733 210.27 19.8333 210.817 20.14C211.364 20.4333 211.964 20.58 212.617 20.58ZM222.45 12.82C222.77 12.1933 223.223 11.7067 223.81 11.36C224.41 11.0133 225.137 10.84 225.99 10.84V12.72H225.51C223.47 12.72 222.45 13.8267 222.45 16.04V22H220.63V11.04H222.45V12.82ZM241.271 10.84C242.124 10.84 242.884 11.02 243.551 11.38C244.217 11.7267 244.744 12.2533 245.131 12.96C245.517 13.6667 245.711 14.5267 245.711 15.54V22H243.911V15.8C243.911 14.7067 243.637 13.8733 243.091 13.3C242.557 12.7133 241.831 12.42 240.911 12.42C239.964 12.42 239.211 12.7267 238.651 13.34C238.091 13.94 237.811 14.8133 237.811 15.96V22H236.011V15.8C236.011 14.7067 235.737 13.8733 235.191 13.3C234.657 12.7133 233.931 12.42 233.011 12.42C232.064 12.42 231.311 12.7267 230.751 13.34C230.191 13.94 229.911 14.8133 229.911 15.96V22H228.091V11.04H229.911V12.62C230.271 12.0467 230.751 11.6067 231.351 11.3C231.964 10.9933 232.637 10.84 233.371 10.84C234.291 10.84 235.104 11.0467 235.811 11.46C236.517 11.8733 237.044 12.48 237.391 13.28C237.697 12.5067 238.204 11.9067 238.911 11.48C239.617 11.0533 240.404 10.84 241.271 10.84ZM248.016 16.48C248.016 15.36 248.243 14.38 248.696 13.54C249.15 12.6867 249.77 12.0267 250.556 11.56C251.356 11.0933 252.243 10.86 253.216 10.86C254.176 10.86 255.01 11.0667 255.716 11.48C256.423 11.8933 256.95 12.4133 257.296 13.04V11.04H259.136V22H257.296V19.96C256.936 20.6 256.396 21.1333 255.676 21.56C254.97 21.9733 254.143 22.18 253.196 22.18C252.223 22.18 251.343 21.94 250.556 21.46C249.77 20.98 249.15 20.3067 248.696 19.44C248.243 18.5733 248.016 17.5867 248.016 16.48ZM257.296 16.5C257.296 15.6733 257.13 14.9533 256.796 14.34C256.463 13.7267 256.01 13.26 255.436 12.94C254.876 12.6067 254.256 12.44 253.576 12.44C252.896 12.44 252.276 12.6 251.716 12.92C251.156 13.24 250.71 13.7067 250.376 14.32C250.043 14.9333 249.876 15.6533 249.876 16.48C249.876 17.32 250.043 18.0533 250.376 18.68C250.71 19.2933 251.156 19.7667 251.716 20.1C252.276 20.42 252.896 20.58 253.576 20.58C254.256 20.58 254.876 20.42 255.436 20.1C256.01 19.7667 256.463 19.2933 256.796 18.68C257.13 18.0533 257.296 17.3267 257.296 16.5ZM266.092 22.18C265.252 22.18 264.499 22.04 263.832 21.76C263.165 21.4667 262.639 21.0667 262.252 20.56C261.865 20.04 261.652 19.4467 261.612 18.78H263.492C263.545 19.3267 263.799 19.7733 264.252 20.12C264.719 20.4667 265.325 20.64 266.072 20.64C266.765 20.64 267.312 20.4867 267.712 20.18C268.112 19.8733 268.312 19.4867 268.312 19.02C268.312 18.54 268.099 18.1867 267.672 17.96C267.245 17.72 266.585 17.4867 265.692 17.26C264.879 17.0467 264.212 16.8333 263.692 16.62C263.185 16.3933 262.745 16.0667 262.372 15.64C262.012 15.2 261.832 14.6267 261.832 13.92C261.832 13.36 261.999 12.8467 262.332 12.38C262.665 11.9133 263.139 11.5467 263.752 11.28C264.365 11 265.065 10.86 265.852 10.86C267.065 10.86 268.045 11.1667 268.792 11.78C269.539 12.3933 269.939 13.2333 269.992 14.3H268.172C268.132 13.7267 267.899 13.2667 267.472 12.92C267.059 12.5733 266.499 12.4 265.792 12.4C265.139 12.4 264.619 12.54 264.232 12.82C263.845 13.1 263.652 13.4667 263.652 13.92C263.652 14.28 263.765 14.58 263.992 14.82C264.232 15.0467 264.525 15.2333 264.872 15.38C265.232 15.5133 265.725 15.6667 266.352 15.84C267.139 16.0533 267.779 16.2667 268.272 16.48C268.765 16.68 269.185 16.9867 269.532 17.4C269.892 17.8133 270.079 18.3533 270.092 19.02C270.092 19.62 269.925 20.16 269.592 20.64C269.259 21.12 268.785 21.5 268.172 21.78C267.572 22.0467 266.879 22.18 266.092 22.18ZM273.601 9.26C273.254 9.26 272.961 9.14 272.721 8.9C272.481 8.66 272.361 8.36667 272.361 8.02C272.361 7.67333 272.481 7.38 272.721 7.14C272.961 6.9 273.254 6.78 273.601 6.78C273.934 6.78 274.214 6.9 274.441 7.14C274.681 7.38 274.801 7.67333 274.801 8.02C274.801 8.36667 274.681 8.66 274.441 8.9C274.214 9.14 273.934 9.26 273.601 9.26ZM274.481 11.04V22H272.661V11.04H274.481ZM293.655 8.06V22H291.835V15.68H284.735V22H282.915V8.06H284.735V14.18H291.835V8.06H293.655ZM296.083 16.48C296.083 15.36 296.309 14.38 296.763 13.54C297.216 12.6867 297.836 12.0267 298.623 11.56C299.423 11.0933 300.309 10.86 301.283 10.86C302.243 10.86 303.076 11.0667 303.783 11.48C304.489 11.8933 305.016 12.4133 305.363 13.04V11.04H307.203V22H305.363V19.96C305.003 20.6 304.463 21.1333 303.743 21.56C303.036 21.9733 302.209 22.18 301.263 22.18C300.289 22.18 299.409 21.94 298.623 21.46C297.836 20.98 297.216 20.3067 296.763 19.44C296.309 18.5733 296.083 17.5867 296.083 16.48ZM305.363 16.5C305.363 15.6733 305.196 14.9533 304.863 14.34C304.529 13.7267 304.076 13.26 303.503 12.94C302.943 12.6067 302.323 12.44 301.643 12.44C300.963 12.44 300.343 12.6 299.783 12.92C299.223 13.24 298.776 13.7067 298.443 14.32C298.109 14.9333 297.943 15.6533 297.943 16.48C297.943 17.32 298.109 18.0533 298.443 18.68C298.776 19.2933 299.223 19.7667 299.783 20.1C300.343 20.42 300.963 20.58 301.643 20.58C302.323 20.58 302.943 20.42 303.503 20.1C304.076 19.7667 304.529 19.2933 304.863 18.68C305.196 18.0533 305.363 17.3267 305.363 16.5ZM323.458 10.84C324.312 10.84 325.072 11.02 325.738 11.38C326.405 11.7267 326.932 12.2533 327.318 12.96C327.705 13.6667 327.898 14.5267 327.898 15.54V22H326.098V15.8C326.098 14.7067 325.825 13.8733 325.278 13.3C324.745 12.7133 324.018 12.42 323.098 12.42C322.152 12.42 321.398 12.7267 320.838 13.34C320.278 13.94 319.998 14.8133 319.998 15.96V22H318.198V15.8C318.198 14.7067 317.925 13.8733 317.378 13.3C316.845 12.7133 316.118 12.42 315.198 12.42C314.252 12.42 313.498 12.7267 312.938 13.34C312.378 13.94 312.098 14.8133 312.098 15.96V22H310.278V11.04H312.098V12.62C312.458 12.0467 312.938 11.6067 313.538 11.3C314.152 10.9933 314.825 10.84 315.558 10.84C316.478 10.84 317.292 11.0467 317.998 11.46C318.705 11.8733 319.232 12.48 319.578 13.28C319.885 12.5067 320.392 11.9067 321.098 11.48C321.805 11.0533 322.592 10.84 323.458 10.84ZM330.204 16.48C330.204 15.36 330.43 14.38 330.884 13.54C331.337 12.6867 331.957 12.0267 332.744 11.56C333.544 11.0933 334.43 10.86 335.404 10.86C336.364 10.86 337.197 11.0667 337.904 11.48C338.61 11.8933 339.137 12.4133 339.484 13.04V11.04H341.324V22H339.484V19.96C339.124 20.6 338.584 21.1333 337.864 21.56C337.157 21.9733 336.33 22.18 335.384 22.18C334.41 22.18 333.53 21.94 332.744 21.46C331.957 20.98 331.337 20.3067 330.884 19.44C330.43 18.5733 330.204 17.5867 330.204 16.48ZM339.484 16.5C339.484 15.6733 339.317 14.9533 338.984 14.34C338.65 13.7267 338.197 13.26 337.624 12.94C337.064 12.6067 336.444 12.44 335.764 12.44C335.084 12.44 334.464 12.6 333.904 12.92C333.344 13.24 332.897 13.7067 332.564 14.32C332.23 14.9333 332.064 15.6533 332.064 16.48C332.064 17.32 332.23 18.0533 332.564 18.68C332.897 19.2933 333.344 19.7667 333.904 20.1C334.464 20.42 335.084 20.58 335.764 20.58C336.444 20.58 337.064 20.42 337.624 20.1C338.197 19.7667 338.65 19.2933 338.984 18.68C339.317 18.0533 339.484 17.3267 339.484 16.5Z" fill="black"/>
<path d="M196.68 36.928L194.728 48H193.272L194.728 39.744L189.592 48H188.568L186.328 39.776L184.872 48H183.416L185.384 36.928H186.952L189.432 46.08L195.128 36.928H196.68ZM202.557 39.088C203.293 39.088 203.928 39.232 204.461 39.52C205.005 39.7973 205.416 40.192 205.693 40.704C205.981 41.2053 206.125 41.7813 206.125 42.432C206.125 42.656 206.099 42.928 206.045 43.248C206.003 43.5253 205.933 43.8133 205.837 44.112H198.829C198.808 44.3253 198.797 44.48 198.797 44.576C198.797 45.312 199.016 45.888 199.453 46.304C199.901 46.7093 200.483 46.912 201.197 46.912C201.827 46.912 202.376 46.768 202.845 46.48C203.325 46.1813 203.688 45.7867 203.933 45.296H205.501C205.117 46.1387 204.525 46.8267 203.725 47.36C202.936 47.8827 202.019 48.144 200.973 48.144C199.875 48.144 198.989 47.8293 198.317 47.2C197.656 46.56 197.325 45.6907 197.325 44.592C197.325 44.2827 197.357 43.952 197.421 43.6C197.581 42.6933 197.907 41.8987 198.397 41.216C198.888 40.5333 199.491 40.0107 200.205 39.648C200.931 39.2747 201.715 39.088 202.557 39.088ZM204.573 43.056C204.605 42.8427 204.621 42.6453 204.621 42.464C204.621 41.7813 204.403 41.2533 203.965 40.88C203.539 40.5067 202.979 40.32 202.285 40.32C201.539 40.32 200.861 40.5653 200.253 41.056C199.645 41.536 199.235 42.2027 199.021 43.056H204.573ZM212.975 39.072C213.882 39.072 214.607 39.3173 215.151 39.808C215.695 40.288 215.967 40.992 215.967 41.92C215.967 42.2613 215.94 42.5653 215.887 42.832L214.975 48H213.535L214.415 43.04C214.458 42.816 214.479 42.5813 214.479 42.336C214.479 41.6853 214.298 41.1893 213.935 40.848C213.583 40.5067 213.087 40.336 212.447 40.336C211.679 40.336 211.023 40.576 210.479 41.056C209.946 41.536 209.599 42.2347 209.439 43.152V43.12L208.575 48H207.119L208.671 39.232H210.127L209.903 40.496C210.266 40.0373 210.719 39.6853 211.263 39.44C211.807 39.1947 212.378 39.072 212.975 39.072ZM219.482 39.232L220.97 46.304L224.954 39.232H226.458L218.906 52.128H217.386L219.866 47.904L217.866 39.232H219.482ZM231.729 39.088C232.465 39.088 233.1 39.232 233.633 39.52C234.177 39.7973 234.588 40.192 234.865 40.704C235.153 41.2053 235.297 41.7813 235.297 42.432C235.297 42.656 235.27 42.928 235.217 43.248C235.174 43.5253 235.105 43.8133 235.009 44.112H228.001C227.98 44.3253 227.969 44.48 227.969 44.576C227.969 45.312 228.188 45.888 228.625 46.304C229.073 46.7093 229.654 46.912 230.369 46.912C230.998 46.912 231.548 46.768 232.017 46.48C232.497 46.1813 232.86 45.7867 233.105 45.296H234.673C234.289 46.1387 233.697 46.8267 232.897 47.36C232.108 47.8827 231.19 48.144 230.145 48.144C229.046 48.144 228.161 47.8293 227.489 47.2C226.828 46.56 226.497 45.6907 226.497 44.592C226.497 44.2827 226.529 43.952 226.593 43.6C226.753 42.6933 227.078 41.8987 227.569 41.216C228.06 40.5333 228.662 40.0107 229.377 39.648C230.102 39.2747 230.886 39.088 231.729 39.088ZM233.745 43.056C233.777 42.8427 233.793 42.6453 233.793 42.464C233.793 41.7813 233.574 41.2533 233.137 40.88C232.71 40.5067 232.15 40.32 231.457 40.32C230.71 40.32 230.033 40.5653 229.425 41.056C228.817 41.536 228.406 42.2027 228.193 43.056H233.745ZM236.515 43.584C236.675 42.688 236.995 41.904 237.475 41.232C237.966 40.5493 238.563 40.0213 239.267 39.648C239.971 39.2747 240.718 39.088 241.507 39.088C242.179 39.088 242.782 39.248 243.315 39.568C243.848 39.8773 244.227 40.288 244.451 40.8L245.267 36.16H246.739L244.643 48H243.171L243.475 46.352C243.102 46.8747 242.6 47.3067 241.971 47.648C241.342 47.9787 240.648 48.144 239.891 48.144C239.208 48.144 238.606 48 238.083 47.712C237.56 47.4133 237.15 46.992 236.851 46.448C236.563 45.904 236.419 45.2747 236.419 44.56C236.419 44.24 236.451 43.9147 236.515 43.584ZM243.955 43.6C243.998 43.376 244.019 43.136 244.019 42.88C244.019 42.1013 243.784 41.488 243.315 41.04C242.856 40.5813 242.27 40.352 241.555 40.352C241.011 40.352 240.488 40.48 239.987 40.736C239.496 40.992 239.075 41.3653 238.723 41.856C238.371 42.3467 238.136 42.9227 238.019 43.584C237.976 43.808 237.955 44.0533 237.955 44.32C237.955 45.1093 238.184 45.7333 238.643 46.192C239.102 46.64 239.688 46.864 240.403 46.864C240.947 46.864 241.464 46.736 241.955 46.48C242.456 46.2133 242.883 45.8347 243.235 45.344C243.598 44.8427 243.838 44.2613 243.955 43.6ZM249.648 37.808C249.413 37.808 249.216 37.7333 249.056 37.584C248.906 37.424 248.832 37.2267 248.832 36.992C248.832 36.672 248.949 36.4 249.184 36.176C249.418 35.9413 249.69 35.824 250 35.824C250.245 35.824 250.442 35.8987 250.592 36.048C250.741 36.1973 250.816 36.3947 250.816 36.64C250.816 36.96 250.698 37.2373 250.464 37.472C250.229 37.696 249.957 37.808 249.648 37.808ZM250.112 39.232L248.56 48H247.104L248.656 39.232H250.112ZM251.265 43.584C251.425 42.688 251.745 41.904 252.225 41.232C252.716 40.5493 253.308 40.0213 254.001 39.648C254.705 39.2747 255.452 39.088 256.241 39.088C257.009 39.088 257.644 39.2533 258.145 39.584C258.646 39.9147 258.993 40.3307 259.185 40.832L259.473 39.232H260.945L259.393 48H257.921L258.225 46.368C257.841 46.88 257.334 47.3067 256.705 47.648C256.076 47.9787 255.382 48.144 254.625 48.144C253.942 48.144 253.34 48 252.817 47.712C252.294 47.4133 251.889 46.992 251.601 46.448C251.313 45.904 251.169 45.2747 251.169 44.56C251.169 44.24 251.201 43.9147 251.265 43.584ZM258.705 43.6C258.748 43.376 258.769 43.136 258.769 42.88C258.769 42.1013 258.534 41.488 258.065 41.04C257.606 40.5813 257.02 40.352 256.305 40.352C255.761 40.352 255.238 40.48 254.737 40.736C254.246 40.992 253.825 41.3653 253.473 41.856C253.121 42.3467 252.886 42.9227 252.769 43.584C252.726 43.808 252.705 44.0533 252.705 44.32C252.705 45.1093 252.934 45.7333 253.393 46.192C253.852 46.64 254.438 46.864 255.153 46.864C255.697 46.864 256.214 46.736 256.705 46.48C257.206 46.2133 257.633 45.8347 257.985 45.344C258.348 44.8427 258.588 44.2613 258.705 43.6ZM265.374 43.616L268.734 48H266.75L263.998 44.144L263.31 48H261.854L263.95 36.16H265.406L264.174 43.104L268.238 39.232H270.253L265.374 43.616ZM270.312 43.584C270.472 42.688 270.792 41.904 271.272 41.232C271.763 40.5493 272.355 40.0213 273.048 39.648C273.752 39.2747 274.499 39.088 275.288 39.088C276.056 39.088 276.691 39.2533 277.192 39.584C277.693 39.9147 278.04 40.3307 278.232 40.832L278.52 39.232H279.992L278.44 48H276.968L277.272 46.368C276.888 46.88 276.381 47.3067 275.752 47.648C275.123 47.9787 274.429 48.144 273.672 48.144C272.989 48.144 272.387 48 271.864 47.712C271.341 47.4133 270.936 46.992 270.648 46.448C270.36 45.904 270.216 45.2747 270.216 44.56C270.216 44.24 270.248 43.9147 270.312 43.584ZM277.752 43.6C277.795 43.376 277.816 43.136 277.816 42.88C277.816 42.1013 277.581 41.488 277.112 41.04C276.653 40.5813 276.067 40.352 275.352 40.352C274.808 40.352 274.285 40.48 273.784 40.736C273.293 40.992 272.872 41.3653 272.52 41.856C272.168 42.3467 271.933 42.9227 271.816 43.584C271.773 43.808 271.752 44.0533 271.752 44.32C271.752 45.1093 271.981 45.7333 272.44 46.192C272.899 46.64 273.485 46.864 274.2 46.864C274.744 46.864 275.261 46.736 275.752 46.48C276.253 46.2133 276.68 45.8347 277.032 45.344C277.395 44.8427 277.635 44.2613 277.752 43.6ZM286.756 39.072C287.663 39.072 288.388 39.3173 288.932 39.808C289.476 40.288 289.748 40.992 289.748 41.92C289.748 42.2613 289.722 42.5653 289.668 42.832L288.756 48H287.316L288.196 43.04C288.239 42.816 288.26 42.5813 288.26 42.336C288.26 41.6853 288.079 41.1893 287.716 40.848C287.364 40.5067 286.868 40.336 286.228 40.336C285.46 40.336 284.804 40.576 284.26 41.056C283.727 41.536 283.38 42.2347 283.22 43.152V43.12L282.356 48H280.9L282.452 39.232H283.908L283.684 40.496C284.047 40.0373 284.5 39.6853 285.044 39.44C285.588 39.1947 286.159 39.072 286.756 39.072ZM186.856 60.848L184.872 72H183.416L185.4 60.848H186.856ZM193.21 63.072C194.116 63.072 194.842 63.3173 195.385 63.808C195.93 64.288 196.202 64.992 196.202 65.92C196.202 66.2613 196.175 66.5653 196.122 66.832L195.21 72H193.77L194.65 67.04C194.692 66.816 194.714 66.5813 194.714 66.336C194.714 65.6853 194.532 65.1893 194.17 64.848C193.818 64.5067 193.322 64.336 192.682 64.336C191.914 64.336 191.258 64.576 190.714 65.056C190.18 65.536 189.834 66.2347 189.674 67.152V67.12L188.81 72H187.354L188.906 63.232H190.362L190.138 64.496C190.5 64.0373 190.954 63.6853 191.498 63.44C192.042 63.1947 192.612 63.072 193.21 63.072ZM203.012 60.992C202.361 60.992 201.881 61.12 201.572 61.376C201.273 61.6213 201.076 62.032 200.98 62.608L200.868 63.232H202.708L202.5 64.432H200.66L199.316 72H197.86L199.188 64.432H198.068L198.276 63.232H199.396L199.508 62.608C199.689 61.6267 200.073 60.912 200.66 60.464C201.247 60.0053 202.1 59.776 203.22 59.776L203.012 60.992ZM206.71 72.144C205.974 72.144 205.323 71.9947 204.758 71.696C204.203 71.3867 203.771 70.96 203.462 70.416C203.152 69.8613 202.998 69.2213 202.998 68.496C202.998 67.504 203.227 66.5973 203.686 65.776C204.144 64.944 204.774 64.288 205.574 63.808C206.384 63.328 207.286 63.088 208.278 63.088C209.014 63.088 209.664 63.2427 210.23 63.552C210.806 63.8507 211.248 64.2773 211.558 64.832C211.878 65.376 212.038 66.016 212.038 66.752C212.038 67.744 211.803 68.6507 211.334 69.472C210.864 70.2933 210.224 70.944 209.414 71.424C208.603 71.904 207.702 72.144 206.71 72.144ZM206.886 70.912C207.579 70.912 208.203 70.7253 208.758 70.352C209.312 69.968 209.744 69.4667 210.054 68.848C210.374 68.2187 210.534 67.5467 210.534 66.832C210.534 66.0213 210.299 65.4027 209.83 64.976C209.36 64.5387 208.774 64.32 208.07 64.32C207.376 64.32 206.758 64.512 206.214 64.896C205.67 65.2693 205.248 65.7707 204.95 66.4C204.651 67.0293 204.502 67.7067 204.502 68.432C204.502 69.2213 204.726 69.8347 205.174 70.272C205.622 70.6987 206.192 70.912 206.886 70.912ZM215.808 64.896C216.16 64.32 216.603 63.872 217.136 63.552C217.669 63.232 218.277 63.072 218.96 63.072L218.688 64.576H218.304C217.547 64.576 216.912 64.7787 216.4 65.184C215.899 65.5893 215.563 66.272 215.392 67.232L214.544 72H213.088L214.64 63.232H216.096L215.808 64.896ZM231.185 63.072C232.081 63.072 232.795 63.3173 233.329 63.808C233.873 64.288 234.145 64.992 234.145 65.92C234.145 66.2613 234.118 66.5653 234.065 66.832L233.153 72H231.713L232.593 67.04C232.635 66.816 232.657 66.576 232.657 66.32C232.657 65.6693 232.481 65.1787 232.129 64.848C231.787 64.5067 231.302 64.336 230.673 64.336C229.947 64.336 229.323 64.56 228.801 65.008C228.289 65.4453 227.937 66.08 227.745 66.912L226.833 72H225.393L226.273 67.04C226.315 66.7947 226.337 66.5493 226.337 66.304C226.337 65.664 226.161 65.1787 225.809 64.848C225.467 64.5067 224.982 64.336 224.353 64.336C223.595 64.336 222.95 64.5813 222.417 65.072C221.883 65.552 221.537 66.2507 221.377 67.168V67.136L220.513 72H219.057L220.609 63.232H222.065L221.841 64.496C222.203 64.0373 222.651 63.6853 223.185 63.44C223.718 63.1947 224.278 63.072 224.865 63.072C225.601 63.072 226.219 63.2373 226.721 63.568C227.233 63.8987 227.569 64.384 227.729 65.024C228.091 64.4053 228.582 63.9253 229.201 63.584C229.83 63.2427 230.491 63.072 231.185 63.072ZM235.765 67.584C235.925 66.688 236.245 65.904 236.725 65.232C237.216 64.5493 237.808 64.0213 238.501 63.648C239.205 63.2747 239.952 63.088 240.741 63.088C241.509 63.088 242.144 63.2533 242.645 63.584C243.146 63.9147 243.493 64.3307 243.685 64.832L243.973 63.232H245.445L243.893 72H242.421L242.725 70.368C242.341 70.88 241.834 71.3067 241.205 71.648C240.576 71.9787 239.882 72.144 239.125 72.144C238.442 72.144 237.84 72 237.317 71.712C236.794 71.4133 236.389 70.992 236.101 70.448C235.813 69.904 235.669 69.2747 235.669 68.56C235.669 68.24 235.701 67.9147 235.765 67.584ZM243.205 67.6C243.248 67.376 243.269 67.136 243.269 66.88C243.269 66.1013 243.034 65.488 242.565 65.04C242.106 64.5813 241.52 64.352 240.805 64.352C240.261 64.352 239.738 64.48 239.237 64.736C238.746 64.992 238.325 65.3653 237.973 65.856C237.621 66.3467 237.386 66.9227 237.269 67.584C237.226 67.808 237.205 68.0533 237.205 68.32C237.205 69.1093 237.434 69.7333 237.893 70.192C238.352 70.64 238.938 70.864 239.653 70.864C240.197 70.864 240.714 70.736 241.205 70.48C241.706 70.2133 242.133 69.8347 242.485 69.344C242.848 68.8427 243.088 68.2613 243.205 67.6ZM249.442 72.144C248.524 72.144 247.772 71.9253 247.186 71.488C246.599 71.0507 246.306 70.464 246.306 69.728C246.306 69.5893 246.311 69.488 246.322 69.424H247.746C247.703 69.8827 247.836 70.256 248.146 70.544C248.466 70.832 248.924 70.976 249.522 70.976C250.119 70.976 250.599 70.864 250.962 70.64C251.335 70.4053 251.522 70.08 251.522 69.664C251.522 69.312 251.372 69.0347 251.074 68.832C250.775 68.6293 250.316 68.4107 249.698 68.176C249.154 67.9733 248.706 67.7813 248.354 67.6C248.002 67.4187 247.703 67.168 247.458 66.848C247.212 66.5173 247.09 66.1013 247.09 65.6C247.09 65.1093 247.228 64.672 247.506 64.288C247.794 63.904 248.188 63.6107 248.69 63.408C249.202 63.1947 249.783 63.088 250.434 63.088C251.33 63.088 252.066 63.312 252.642 63.76C253.218 64.208 253.506 64.7947 253.506 65.52C253.506 65.6587 253.5 65.7653 253.49 65.84H252.098L252.114 65.648C252.114 65.2213 251.948 64.8853 251.618 64.64C251.298 64.384 250.871 64.256 250.338 64.256C249.815 64.256 249.383 64.3733 249.042 64.608C248.711 64.8427 248.546 65.1573 248.546 65.552C248.546 65.9253 248.7 66.2187 249.01 66.432C249.319 66.6453 249.799 66.88 250.45 67.136C250.994 67.3493 251.431 67.5467 251.762 67.728C252.092 67.8987 252.375 68.1387 252.61 68.448C252.844 68.7573 252.962 69.1467 252.962 69.616C252.962 70.128 252.807 70.576 252.498 70.96C252.199 71.344 251.783 71.6373 251.25 71.84C250.716 72.0427 250.114 72.144 249.442 72.144ZM257.257 61.808C257.022 61.808 256.825 61.7333 256.665 61.584C256.516 61.424 256.441 61.2267 256.441 60.992C256.441 60.672 256.558 60.4 256.793 60.176C257.028 59.9413 257.3 59.824 257.609 59.824C257.854 59.824 258.052 59.8987 258.201 60.048C258.35 60.1973 258.425 60.3947 258.425 60.64C258.425 60.96 258.308 61.2373 258.073 61.472C257.838 61.696 257.566 61.808 257.257 61.808ZM257.721 63.232L256.169 72H254.713L256.265 63.232H257.721ZM273.976 60.848L272.008 72H270.552L271.448 66.912H265.784L264.872 72H263.416L265.4 60.848H266.856L265.976 65.776H271.656L272.52 60.848H273.976ZM274.703 67.584C274.863 66.688 275.183 65.904 275.663 65.232C276.153 64.5493 276.745 64.0213 277.439 63.648C278.143 63.2747 278.889 63.088 279.679 63.088C280.447 63.088 281.081 63.2533 281.583 63.584C282.084 63.9147 282.431 64.3307 282.623 64.832L282.911 63.232H284.383L282.831 72H281.359L281.663 70.368C281.279 70.88 280.772 71.3067 280.143 71.648C279.513 71.9787 278.82 72.144 278.062 72.144C277.38 72.144 276.777 72 276.255 71.712C275.732 71.4133 275.327 70.992 275.039 70.448C274.751 69.904 274.607 69.2747 274.607 68.56C274.607 68.24 274.639 67.9147 274.703 67.584ZM282.142 67.6C282.185 67.376 282.207 67.136 282.207 66.88C282.207 66.1013 281.972 65.488 281.503 65.04C281.044 64.5813 280.457 64.352 279.743 64.352C279.199 64.352 278.676 64.48 278.174 64.736C277.684 64.992 277.263 65.3653 276.911 65.856C276.559 66.3467 276.324 66.9227 276.207 67.584C276.164 67.808 276.143 68.0533 276.143 68.32C276.143 69.1093 276.372 69.7333 276.831 70.192C277.289 70.64 277.876 70.864 278.591 70.864C279.135 70.864 279.652 70.736 280.143 70.48C280.644 70.2133 281.071 69.8347 281.423 69.344C281.785 68.8427 282.025 68.2613 282.142 67.6ZM297.419 63.072C298.315 63.072 299.03 63.3173 299.563 63.808C300.107 64.288 300.379 64.992 300.379 65.92C300.379 66.2613 300.352 66.5653 300.299 66.832L299.387 72H297.947L298.827 67.04C298.87 66.816 298.891 66.576 298.891 66.32C298.891 65.6693 298.715 65.1787 298.363 64.848C298.022 64.5067 297.536 64.336 296.907 64.336C296.182 64.336 295.558 64.56 295.035 65.008C294.523 65.4453 294.171 66.08 293.979 66.912L293.067 72H291.627L292.507 67.04C292.55 66.7947 292.571 66.5493 292.571 66.304C292.571 65.664 292.395 65.1787 292.043 64.848C291.702 64.5067 291.216 64.336 290.587 64.336C289.83 64.336 289.184 64.5813 288.651 65.072C288.118 65.552 287.771 66.2507 287.611 67.168V67.136L286.747 72H285.291L286.843 63.232H288.299L288.075 64.496C288.438 64.0373 288.886 63.6853 289.419 63.44C289.952 63.1947 290.512 63.072 291.099 63.072C291.835 63.072 292.454 63.2373 292.955 63.568C293.467 63.8987 293.803 64.384 293.963 65.024C294.326 64.4053 294.816 63.9253 295.435 63.584C296.064 63.2427 296.726 63.072 297.419 63.072ZM301.999 67.584C302.159 66.688 302.479 65.904 302.959 65.232C303.45 64.5493 304.042 64.0213 304.735 63.648C305.439 63.2747 306.186 63.088 306.975 63.088C307.743 63.088 308.378 63.2533 308.879 63.584C309.381 63.9147 309.727 64.3307 309.919 64.832L310.207 63.232H311.679L310.127 72H308.655L308.959 70.368C308.575 70.88 308.069 71.3067 307.439 71.648C306.81 71.9787 306.117 72.144 305.359 72.144C304.677 72.144 304.074 72 303.551 71.712C303.029 71.4133 302.623 70.992 302.335 70.448C302.047 69.904 301.903 69.2747 301.903 68.56C301.903 68.24 301.935 67.9147 301.999 67.584ZM309.439 67.6C309.482 67.376 309.503 67.136 309.503 66.88C309.503 66.1013 309.269 65.488 308.799 65.04C308.341 64.5813 307.754 64.352 307.039 64.352C306.495 64.352 305.973 64.48 305.471 64.736C304.981 64.992 304.559 65.3653 304.207 65.856C303.855 66.3467 303.621 66.9227 303.503 67.584C303.461 67.808 303.439 68.0533 303.439 68.32C303.439 69.1093 303.669 69.7333 304.127 70.192C304.586 70.64 305.173 70.864 305.887 70.864C306.431 70.864 306.949 70.736 307.439 70.48C307.941 70.2133 308.367 69.8347 308.719 69.344C309.082 68.8427 309.322 68.2613 309.439 67.6Z" fill="black"/>
<path d="M530.68 36.928L528.728 48H527.272L528.728 39.744L523.592 48H522.568L520.328 39.776L518.872 48H517.416L519.384 36.928H520.952L523.432 46.08L529.128 36.928H530.68ZM536.557 39.088C537.293 39.088 537.928 39.232 538.461 39.52C539.005 39.7973 539.416 40.192 539.693 40.704C539.981 41.2053 540.125 41.7813 540.125 42.432C540.125 42.656 540.099 42.928 540.045 43.248C540.003 43.5253 539.933 43.8133 539.837 44.112H532.829C532.808 44.3253 532.797 44.48 532.797 44.576C532.797 45.312 533.016 45.888 533.453 46.304C533.901 46.7093 534.483 46.912 535.197 46.912C535.827 46.912 536.376 46.768 536.845 46.48C537.325 46.1813 537.688 45.7867 537.933 45.296H539.501C539.117 46.1387 538.525 46.8267 537.725 47.36C536.936 47.8827 536.019 48.144 534.973 48.144C533.875 48.144 532.989 47.8293 532.317 47.2C531.656 46.56 531.325 45.6907 531.325 44.592C531.325 44.2827 531.357 43.952 531.421 43.6C531.581 42.6933 531.907 41.8987 532.397 41.216C532.888 40.5333 533.491 40.0107 534.205 39.648C534.931 39.2747 535.715 39.088 536.557 39.088ZM538.573 43.056C538.605 42.8427 538.621 42.6453 538.621 42.464C538.621 41.7813 538.403 41.2533 537.965 40.88C537.539 40.5067 536.979 40.32 536.285 40.32C535.539 40.32 534.861 40.5653 534.253 41.056C533.645 41.536 533.235 42.2027 533.021 43.056H538.573ZM546.975 39.072C547.882 39.072 548.607 39.3173 549.151 39.808C549.695 40.288 549.967 40.992 549.967 41.92C549.967 42.2613 549.94 42.5653 549.887 42.832L548.975 48H547.535L548.415 43.04C548.458 42.816 548.479 42.5813 548.479 42.336C548.479 41.6853 548.298 41.1893 547.935 40.848C547.583 40.5067 547.087 40.336 546.447 40.336C545.679 40.336 545.023 40.576 544.479 41.056C543.946 41.536 543.599 42.2347 543.439 43.152V43.12L542.575 48H541.119L542.671 39.232H544.127L543.903 40.496C544.266 40.0373 544.719 39.6853 545.263 39.44C545.807 39.1947 546.378 39.072 546.975 39.072ZM553.482 39.232L554.97 46.304L558.954 39.232H560.458L552.906 52.128H551.386L553.866 47.904L551.866 39.232H553.482ZM565.729 39.088C566.465 39.088 567.1 39.232 567.633 39.52C568.177 39.7973 568.588 40.192 568.865 40.704C569.153 41.2053 569.297 41.7813 569.297 42.432C569.297 42.656 569.27 42.928 569.217 43.248C569.174 43.5253 569.105 43.8133 569.009 44.112H562.001C561.98 44.3253 561.969 44.48 561.969 44.576C561.969 45.312 562.188 45.888 562.625 46.304C563.073 46.7093 563.654 46.912 564.369 46.912C564.998 46.912 565.548 46.768 566.017 46.48C566.497 46.1813 566.86 45.7867 567.105 45.296H568.673C568.289 46.1387 567.697 46.8267 566.897 47.36C566.108 47.8827 565.19 48.144 564.145 48.144C563.046 48.144 562.161 47.8293 561.489 47.2C560.828 46.56 560.497 45.6907 560.497 44.592C560.497 44.2827 560.529 43.952 560.593 43.6C560.753 42.6933 561.078 41.8987 561.569 41.216C562.06 40.5333 562.662 40.0107 563.377 39.648C564.102 39.2747 564.886 39.088 565.729 39.088ZM567.745 43.056C567.777 42.8427 567.793 42.6453 567.793 42.464C567.793 41.7813 567.574 41.2533 567.137 40.88C566.71 40.5067 566.15 40.32 565.457 40.32C564.71 40.32 564.033 40.5653 563.425 41.056C562.817 41.536 562.406 42.2027 562.193 43.056H567.745ZM570.515 43.584C570.675 42.688 570.995 41.904 571.475 41.232C571.966 40.5493 572.563 40.0213 573.267 39.648C573.971 39.2747 574.718 39.088 575.507 39.088C576.179 39.088 576.782 39.248 577.315 39.568C577.848 39.8773 578.227 40.288 578.451 40.8L579.267 36.16H580.739L578.643 48H577.171L577.475 46.352C577.102 46.8747 576.6 47.3067 575.971 47.648C575.342 47.9787 574.648 48.144 573.891 48.144C573.208 48.144 572.606 48 572.083 47.712C571.56 47.4133 571.15 46.992 570.851 46.448C570.563 45.904 570.419 45.2747 570.419 44.56C570.419 44.24 570.451 43.9147 570.515 43.584ZM577.955 43.6C577.998 43.376 578.019 43.136 578.019 42.88C578.019 42.1013 577.784 41.488 577.315 41.04C576.856 40.5813 576.27 40.352 575.555 40.352C575.011 40.352 574.488 40.48 573.987 40.736C573.496 40.992 573.075 41.3653 572.723 41.856C572.371 42.3467 572.136 42.9227 572.019 43.584C571.976 43.808 571.955 44.0533 571.955 44.32C571.955 45.1093 572.184 45.7333 572.643 46.192C573.102 46.64 573.688 46.864 574.403 46.864C574.947 46.864 575.464 46.736 575.955 46.48C576.456 46.2133 576.883 45.8347 577.235 45.344C577.598 44.8427 577.838 44.2613 577.955 43.6ZM583.648 37.808C583.413 37.808 583.216 37.7333 583.056 37.584C582.906 37.424 582.832 37.2267 582.832 36.992C582.832 36.672 582.949 36.4 583.184 36.176C583.418 35.9413 583.69 35.824 584 35.824C584.245 35.824 584.442 35.8987 584.592 36.048C584.741 36.1973 584.816 36.3947 584.816 36.64C584.816 36.96 584.698 37.2373 584.464 37.472C584.229 37.696 583.957 37.808 583.648 37.808ZM584.112 39.232L582.56 48H581.104L582.656 39.232H584.112ZM585.265 43.584C585.425 42.688 585.745 41.904 586.225 41.232C586.716 40.5493 587.308 40.0213 588.001 39.648C588.705 39.2747 589.452 39.088 590.241 39.088C591.009 39.088 591.644 39.2533 592.145 39.584C592.646 39.9147 592.993 40.3307 593.185 40.832L593.473 39.232H594.945L593.393 48H591.921L592.225 46.368C591.841 46.88 591.334 47.3067 590.705 47.648C590.076 47.9787 589.382 48.144 588.625 48.144C587.942 48.144 587.34 48 586.817 47.712C586.294 47.4133 585.889 46.992 585.601 46.448C585.313 45.904 585.169 45.2747 585.169 44.56C585.169 44.24 585.201 43.9147 585.265 43.584ZM592.705 43.6C592.748 43.376 592.769 43.136 592.769 42.88C592.769 42.1013 592.534 41.488 592.065 41.04C591.606 40.5813 591.02 40.352 590.305 40.352C589.761 40.352 589.238 40.48 588.737 40.736C588.246 40.992 587.825 41.3653 587.473 41.856C587.121 42.3467 586.886 42.9227 586.769 43.584C586.726 43.808 586.705 44.0533 586.705 44.32C586.705 45.1093 586.934 45.7333 587.393 46.192C587.852 46.64 588.438 46.864 589.153 46.864C589.697 46.864 590.214 46.736 590.705 46.48C591.206 46.2133 591.633 45.8347 591.985 45.344C592.348 44.8427 592.588 44.2613 592.705 43.6ZM599.374 43.616L602.734 48H600.75L597.998 44.144L597.31 48H595.854L597.95 36.16H599.406L598.174 43.104L602.238 39.232H604.253L599.374 43.616ZM604.312 43.584C604.472 42.688 604.792 41.904 605.272 41.232C605.763 40.5493 606.355 40.0213 607.048 39.648C607.752 39.2747 608.499 39.088 609.288 39.088C610.056 39.088 610.691 39.2533 611.192 39.584C611.693 39.9147 612.04 40.3307 612.232 40.832L612.52 39.232H613.992L612.44 48H610.968L611.272 46.368C610.888 46.88 610.381 47.3067 609.752 47.648C609.123 47.9787 608.429 48.144 607.672 48.144C606.989 48.144 606.387 48 605.864 47.712C605.341 47.4133 604.936 46.992 604.648 46.448C604.36 45.904 604.216 45.2747 604.216 44.56C604.216 44.24 604.248 43.9147 604.312 43.584ZM611.752 43.6C611.795 43.376 611.816 43.136 611.816 42.88C611.816 42.1013 611.581 41.488 611.112 41.04C610.653 40.5813 610.067 40.352 609.352 40.352C608.808 40.352 608.285 40.48 607.784 40.736C607.293 40.992 606.872 41.3653 606.52 41.856C606.168 42.3467 605.933 42.9227 605.816 43.584C605.773 43.808 605.752 44.0533 605.752 44.32C605.752 45.1093 605.981 45.7333 606.44 46.192C606.899 46.64 607.485 46.864 608.2 46.864C608.744 46.864 609.261 46.736 609.752 46.48C610.253 46.2133 610.68 45.8347 611.032 45.344C611.395 44.8427 611.635 44.2613 611.752 43.6ZM620.756 39.072C621.663 39.072 622.388 39.3173 622.932 39.808C623.476 40.288 623.748 40.992 623.748 41.92C623.748 42.2613 623.722 42.5653 623.668 42.832L622.756 48H621.316L622.196 43.04C622.239 42.816 622.26 42.5813 622.26 42.336C622.26 41.6853 622.079 41.1893 621.716 40.848C621.364 40.5067 620.868 40.336 620.228 40.336C619.46 40.336 618.804 40.576 618.26 41.056C617.727 41.536 617.38 42.2347 617.22 43.152V43.12L616.356 48H614.9L616.452 39.232H617.908L617.684 40.496C618.047 40.0373 618.5 39.6853 619.044 39.44C619.588 39.1947 620.159 39.072 620.756 39.072ZM520.856 60.848L518.872 72H517.416L519.4 60.848H520.856ZM527.21 63.072C528.116 63.072 528.842 63.3173 529.385 63.808C529.93 64.288 530.202 64.992 530.202 65.92C530.202 66.2613 530.175 66.5653 530.122 66.832L529.21 72H527.77L528.65 67.04C528.692 66.816 528.714 66.5813 528.714 66.336C528.714 65.6853 528.532 65.1893 528.17 64.848C527.818 64.5067 527.322 64.336 526.682 64.336C525.914 64.336 525.258 64.576 524.714 65.056C524.18 65.536 523.834 66.2347 523.674 67.152V67.12L522.81 72H521.354L522.906 63.232H524.362L524.138 64.496C524.5 64.0373 524.954 63.6853 525.498 63.44C526.042 63.1947 526.612 63.072 527.21 63.072ZM537.012 60.992C536.361 60.992 535.881 61.12 535.572 61.376C535.273 61.6213 535.076 62.032 534.98 62.608L534.868 63.232H536.708L536.5 64.432H534.66L533.316 72H531.86L533.188 64.432H532.068L532.276 63.232H533.396L533.508 62.608C533.689 61.6267 534.073 60.912 534.66 60.464C535.247 60.0053 536.1 59.776 537.22 59.776L537.012 60.992ZM540.71 72.144C539.974 72.144 539.323 71.9947 538.758 71.696C538.203 71.3867 537.771 70.96 537.462 70.416C537.152 69.8613 536.998 69.2213 536.998 68.496C536.998 67.504 537.227 66.5973 537.686 65.776C538.144 64.944 538.774 64.288 539.574 63.808C540.384 63.328 541.286 63.088 542.278 63.088C543.014 63.088 543.664 63.2427 544.23 63.552C544.806 63.8507 545.248 64.2773 545.558 64.832C545.878 65.376 546.038 66.016 546.038 66.752C546.038 67.744 545.803 68.6507 545.334 69.472C544.864 70.2933 544.224 70.944 543.414 71.424C542.603 71.904 541.702 72.144 540.71 72.144ZM540.886 70.912C541.579 70.912 542.203 70.7253 542.758 70.352C543.312 69.968 543.744 69.4667 544.054 68.848C544.374 68.2187 544.534 67.5467 544.534 66.832C544.534 66.0213 544.299 65.4027 543.83 64.976C543.36 64.5387 542.774 64.32 542.07 64.32C541.376 64.32 540.758 64.512 540.214 64.896C539.67 65.2693 539.248 65.7707 538.95 66.4C538.651 67.0293 538.502 67.7067 538.502 68.432C538.502 69.2213 538.726 69.8347 539.174 70.272C539.622 70.6987 540.192 70.912 540.886 70.912ZM549.808 64.896C550.16 64.32 550.603 63.872 551.136 63.552C551.669 63.232 552.277 63.072 552.96 63.072L552.688 64.576H552.304C551.547 64.576 550.912 64.7787 550.4 65.184C549.899 65.5893 549.563 66.272 549.392 67.232L548.544 72H547.088L548.64 63.232H550.096L549.808 64.896ZM565.185 63.072C566.081 63.072 566.795 63.3173 567.329 63.808C567.873 64.288 568.145 64.992 568.145 65.92C568.145 66.2613 568.118 66.5653 568.065 66.832L567.153 72H565.713L566.593 67.04C566.635 66.816 566.657 66.576 566.657 66.32C566.657 65.6693 566.481 65.1787 566.129 64.848C565.787 64.5067 565.302 64.336 564.673 64.336C563.947 64.336 563.323 64.56 562.801 65.008C562.289 65.4453 561.937 66.08 561.745 66.912L560.833 72H559.393L560.273 67.04C560.315 66.7947 560.337 66.5493 560.337 66.304C560.337 65.664 560.161 65.1787 559.809 64.848C559.467 64.5067 558.982 64.336 558.353 64.336C557.595 64.336 556.95 64.5813 556.417 65.072C555.883 65.552 555.537 66.2507 555.377 67.168V67.136L554.513 72H553.057L554.609 63.232H556.065L555.841 64.496C556.203 64.0373 556.651 63.6853 557.185 63.44C557.718 63.1947 558.278 63.072 558.865 63.072C559.601 63.072 560.219 63.2373 560.721 63.568C561.233 63.8987 561.569 64.384 561.729 65.024C562.091 64.4053 562.582 63.9253 563.201 63.584C563.83 63.2427 564.491 63.072 565.185 63.072ZM569.765 67.584C569.925 66.688 570.245 65.904 570.725 65.232C571.216 64.5493 571.808 64.0213 572.501 63.648C573.205 63.2747 573.952 63.088 574.741 63.088C575.509 63.088 576.144 63.2533 576.645 63.584C577.146 63.9147 577.493 64.3307 577.685 64.832L577.973 63.232H579.445L577.893 72H576.421L576.725 70.368C576.341 70.88 575.834 71.3067 575.205 71.648C574.576 71.9787 573.882 72.144 573.125 72.144C572.442 72.144 571.84 72 571.317 71.712C570.794 71.4133 570.389 70.992 570.101 70.448C569.813 69.904 569.669 69.2747 569.669 68.56C569.669 68.24 569.701 67.9147 569.765 67.584ZM577.205 67.6C577.248 67.376 577.269 67.136 577.269 66.88C577.269 66.1013 577.034 65.488 576.565 65.04C576.106 64.5813 575.52 64.352 574.805 64.352C574.261 64.352 573.738 64.48 573.237 64.736C572.746 64.992 572.325 65.3653 571.973 65.856C571.621 66.3467 571.386 66.9227 571.269 67.584C571.226 67.808 571.205 68.0533 571.205 68.32C571.205 69.1093 571.434 69.7333 571.893 70.192C572.352 70.64 572.938 70.864 573.653 70.864C574.197 70.864 574.714 70.736 575.205 70.48C575.706 70.2133 576.133 69.8347 576.485 69.344C576.848 68.8427 577.088 68.2613 577.205 67.6ZM583.442 72.144C582.524 72.144 581.772 71.9253 581.186 71.488C580.599 71.0507 580.306 70.464 580.306 69.728C580.306 69.5893 580.311 69.488 580.322 69.424H581.746C581.703 69.8827 581.836 70.256 582.146 70.544C582.466 70.832 582.924 70.976 583.522 70.976C584.119 70.976 584.599 70.864 584.962 70.64C585.335 70.4053 585.522 70.08 585.522 69.664C585.522 69.312 585.372 69.0347 585.074 68.832C584.775 68.6293 584.316 68.4107 583.698 68.176C583.154 67.9733 582.706 67.7813 582.354 67.6C582.002 67.4187 581.703 67.168 581.458 66.848C581.212 66.5173 581.09 66.1013 581.09 65.6C581.09 65.1093 581.228 64.672 581.506 64.288C581.794 63.904 582.188 63.6107 582.69 63.408C583.202 63.1947 583.783 63.088 584.434 63.088C585.33 63.088 586.066 63.312 586.642 63.76C587.218 64.208 587.506 64.7947 587.506 65.52C587.506 65.6587 587.5 65.7653 587.49 65.84H586.098L586.114 65.648C586.114 65.2213 585.948 64.8853 585.618 64.64C585.298 64.384 584.871 64.256 584.338 64.256C583.815 64.256 583.383 64.3733 583.042 64.608C582.711 64.8427 582.546 65.1573 582.546 65.552C582.546 65.9253 582.7 66.2187 583.01 66.432C583.319 66.6453 583.799 66.88 584.45 67.136C584.994 67.3493 585.431 67.5467 585.762 67.728C586.092 67.8987 586.375 68.1387 586.61 68.448C586.844 68.7573 586.962 69.1467 586.962 69.616C586.962 70.128 586.807 70.576 586.498 70.96C586.199 71.344 585.783 71.6373 585.25 71.84C584.716 72.0427 584.114 72.144 583.442 72.144ZM591.257 61.808C591.022 61.808 590.825 61.7333 590.665 61.584C590.516 61.424 590.441 61.2267 590.441 60.992C590.441 60.672 590.558 60.4 590.793 60.176C591.028 59.9413 591.3 59.824 591.609 59.824C591.854 59.824 592.052 59.8987 592.201 60.048C592.35 60.1973 592.425 60.3947 592.425 60.64C592.425 60.96 592.308 61.2373 592.073 61.472C591.838 61.696 591.566 61.808 591.257 61.808ZM591.721 63.232L590.169 72H588.713L590.265 63.232H591.721ZM606.248 60.848L606.04 61.984H603L601.24 72H599.784L601.544 61.984H598.504L598.712 60.848H606.248ZM606.296 67.584C606.456 66.688 606.776 65.904 607.256 65.232C607.747 64.5493 608.339 64.0213 609.032 63.648C609.736 63.2747 610.483 63.088 611.272 63.088C612.04 63.088 612.675 63.2533 613.176 63.584C613.678 63.9147 614.024 64.3307 614.216 64.832L614.504 63.232H615.976L614.424 72H612.952L613.256 70.368C612.872 70.88 612.366 71.3067 611.736 71.648C611.107 71.9787 610.414 72.144 609.656 72.144C608.974 72.144 608.371 72 607.848 71.712C607.326 71.4133 606.92 70.992 606.632 70.448C606.344 69.904 606.2 69.2747 606.2 68.56C606.2 68.24 606.232 67.9147 606.296 67.584ZM613.736 67.6C613.779 67.376 613.8 67.136 613.8 66.88C613.8 66.1013 613.566 65.488 613.096 65.04C612.638 64.5813 612.051 64.352 611.336 64.352C610.792 64.352 610.27 64.48 609.768 64.736C609.278 64.992 608.856 65.3653 608.504 65.856C608.152 66.3467 607.918 66.9227 607.8 67.584C607.758 67.808 607.736 68.0533 607.736 68.32C607.736 69.1093 607.966 69.7333 608.424 70.192C608.883 70.64 609.47 70.864 610.184 70.864C610.728 70.864 611.246 70.736 611.736 70.48C612.238 70.2133 612.664 69.8347 613.016 69.344C613.379 68.8427 613.619 68.2613 613.736 67.6ZM622.741 63.072C623.647 63.072 624.373 63.3173 624.917 63.808C625.461 64.288 625.733 64.992 625.733 65.92C625.733 66.2613 625.706 66.5653 625.653 66.832L624.741 72H623.301L624.181 67.04C624.223 66.816 624.245 66.5813 624.245 66.336C624.245 65.6853 624.063 65.1893 623.701 64.848C623.349 64.5067 622.853 64.336 622.213 64.336C621.445 64.336 620.789 64.576 620.245 65.056C619.711 65.536 619.365 66.2347 619.205 67.152V67.12L618.341 72H616.885L618.437 63.232H619.893L619.669 64.496C620.031 64.0373 620.485 63.6853 621.029 63.44C621.573 63.1947 622.143 63.072 622.741 63.072ZM627.343 67.584C627.503 66.688 627.823 65.904 628.303 65.232C628.794 64.5493 629.386 64.0213 630.079 63.648C630.783 63.2747 631.53 63.088 632.319 63.088C633.087 63.088 633.722 63.2533 634.223 63.584C634.724 63.9147 635.071 64.3307 635.263 64.832L635.551 63.232H637.023L635.471 72H633.999L634.303 70.368C633.919 70.88 633.412 71.3067 632.783 71.648C632.154 71.9787 631.46 72.144 630.703 72.144C630.02 72.144 629.418 72 628.895 71.712C628.372 71.4133 627.967 70.992 627.679 70.448C627.391 69.904 627.247 69.2747 627.247 68.56C627.247 68.24 627.279 67.9147 627.343 67.584ZM634.783 67.6C634.826 67.376 634.847 67.136 634.847 66.88C634.847 66.1013 634.612 65.488 634.143 65.04C633.684 64.5813 633.098 64.352 632.383 64.352C631.839 64.352 631.316 64.48 630.815 64.736C630.324 64.992 629.903 65.3653 629.551 65.856C629.199 66.3467 628.964 66.9227 628.847 67.584C628.804 67.808 628.783 68.0533 628.783 68.32C628.783 69.1093 629.012 69.7333 629.471 70.192C629.93 70.64 630.516 70.864 631.231 70.864C631.775 70.864 632.292 70.736 632.783 70.48C633.284 70.2133 633.711 69.8347 634.063 69.344C634.426 68.8427 634.666 68.2613 634.783 67.6ZM650.06 63.072C650.956 63.072 651.67 63.3173 652.204 63.808C652.748 64.288 653.02 64.992 653.02 65.92C653.02 66.2613 652.993 66.5653 652.94 66.832L652.028 72H650.588L651.468 67.04C651.51 66.816 651.532 66.576 651.532 66.32C651.532 65.6693 651.356 65.1787 651.004 64.848C650.662 64.5067 650.177 64.336 649.548 64.336C648.822 64.336 648.198 64.56 647.676 65.008C647.164 65.4453 646.812 66.08 646.62 66.912L645.708 72H644.268L645.148 67.04C645.19 66.7947 645.212 66.5493 645.212 66.304C645.212 65.664 645.036 65.1787 644.684 64.848C644.342 64.5067 643.857 64.336 643.228 64.336C642.47 64.336 641.825 64.5813 641.292 65.072C640.758 65.552 640.412 66.2507 640.252 67.168V67.136L639.388 72H637.932L639.484 63.232H640.94L640.716 64.496C641.078 64.0373 641.526 63.6853 642.06 63.44C642.593 63.1947 643.153 63.072 643.74 63.072C644.476 63.072 645.094 63.2373 645.596 63.568C646.108 63.8987 646.444 64.384 646.604 65.024C646.966 64.4053 647.457 63.9253 648.076 63.584C648.705 63.2427 649.366 63.072 650.06 63.072ZM654.64 67.584C654.8 66.688 655.12 65.904 655.6 65.232C656.091 64.5493 656.683 64.0213 657.376 63.648C658.08 63.2747 658.827 63.088 659.616 63.088C660.384 63.088 661.019 63.2533 661.52 63.584C662.021 63.9147 662.368 64.3307 662.56 64.832L662.848 63.232H664.32L662.768 72H661.296L661.6 70.368C661.216 70.88 660.709 71.3067 660.08 71.648C659.451 71.9787 658.757 72.144 658 72.144C657.317 72.144 656.715 72 656.192 71.712C655.669 71.4133 655.264 70.992 654.976 70.448C654.688 69.904 654.544 69.2747 654.544 68.56C654.544 68.24 654.576 67.9147 654.64 67.584ZM662.08 67.6C662.123 67.376 662.144 67.136 662.144 66.88C662.144 66.1013 661.909 65.488 661.44 65.04C660.981 64.5813 660.395 64.352 659.68 64.352C659.136 64.352 658.613 64.48 658.112 64.736C657.621 64.992 657.2 65.3653 656.848 65.856C656.496 66.3467 656.261 66.9227 656.144 67.584C656.101 67.808 656.08 68.0533 656.08 68.32C656.08 69.1093 656.309 69.7333 656.768 70.192C657.227 70.64 657.813 70.864 658.528 70.864C659.072 70.864 659.589 70.736 660.08 70.48C660.581 70.2133 661.008 69.8347 661.36 69.344C661.723 68.8427 661.963 68.2613 662.08 67.6ZM671.085 63.072C671.991 63.072 672.717 63.3173 673.26 63.808C673.805 64.288 674.077 64.992 674.077 65.92C674.077 66.2613 674.05 66.5653 673.997 66.832L673.085 72H671.645L672.525 67.04C672.567 66.816 672.589 66.5813 672.589 66.336C672.589 65.6853 672.407 65.1893 672.045 64.848C671.693 64.5067 671.197 64.336 670.557 64.336C669.789 64.336 669.133 64.576 668.589 65.056C668.055 65.536 667.709 66.2347 667.549 67.152V67.12L666.685 72H665.229L666.781 63.232H668.237L668.013 64.496C668.375 64.0373 668.829 63.6853 669.373 63.44C669.917 63.1947 670.487 63.072 671.085 63.072Z" fill="black"/>
<path d="M897.68 36.928L895.728 48H894.272L895.728 39.744L890.592 48H889.568L887.328 39.776L885.872 48H884.416L886.384 36.928H887.952L890.432 46.08L896.128 36.928H897.68ZM903.557 39.088C904.293 39.088 904.928 39.232 905.461 39.52C906.005 39.7973 906.416 40.192 906.693 40.704C906.981 41.2053 907.125 41.7813 907.125 42.432C907.125 42.656 907.099 42.928 907.045 43.248C907.003 43.5253 906.933 43.8133 906.837 44.112H899.829C899.808 44.3253 899.797 44.48 899.797 44.576C899.797 45.312 900.016 45.888 900.453 46.304C900.901 46.7093 901.483 46.912 902.197 46.912C902.827 46.912 903.376 46.768 903.845 46.48C904.325 46.1813 904.688 45.7867 904.933 45.296H906.501C906.117 46.1387 905.525 46.8267 904.725 47.36C903.936 47.8827 903.019 48.144 901.973 48.144C900.875 48.144 899.989 47.8293 899.317 47.2C898.656 46.56 898.325 45.6907 898.325 44.592C898.325 44.2827 898.357 43.952 898.421 43.6C898.581 42.6933 898.907 41.8987 899.397 41.216C899.888 40.5333 900.491 40.0107 901.205 39.648C901.931 39.2747 902.715 39.088 903.557 39.088ZM905.573 43.056C905.605 42.8427 905.621 42.6453 905.621 42.464C905.621 41.7813 905.403 41.2533 904.965 40.88C904.539 40.5067 903.979 40.32 903.285 40.32C902.539 40.32 901.861 40.5653 901.253 41.056C900.645 41.536 900.235 42.2027 900.021 43.056H905.573ZM913.975 39.072C914.882 39.072 915.607 39.3173 916.151 39.808C916.695 40.288 916.967 40.992 916.967 41.92C916.967 42.2613 916.94 42.5653 916.887 42.832L915.975 48H914.535L915.415 43.04C915.458 42.816 915.479 42.5813 915.479 42.336C915.479 41.6853 915.298 41.1893 914.935 40.848C914.583 40.5067 914.087 40.336 913.447 40.336C912.679 40.336 912.023 40.576 911.479 41.056C910.946 41.536 910.599 42.2347 910.439 43.152V43.12L909.575 48H908.119L909.671 39.232H911.127L910.903 40.496C911.266 40.0373 911.719 39.6853 912.263 39.44C912.807 39.1947 913.378 39.072 913.975 39.072ZM918.578 43.584C918.738 42.688 919.058 41.904 919.538 41.232C920.028 40.5493 920.626 40.0213 921.33 39.648C922.034 39.2747 922.78 39.088 923.57 39.088C924.242 39.088 924.844 39.248 925.378 39.568C925.911 39.8773 926.29 40.288 926.514 40.8L927.33 36.16H928.802L926.706 48H925.234L925.538 46.352C925.164 46.8747 924.663 47.3067 924.034 47.648C923.404 47.9787 922.711 48.144 921.954 48.144C921.271 48.144 920.668 48 920.146 47.712C919.623 47.4133 919.212 46.992 918.914 46.448C918.626 45.904 918.482 45.2747 918.482 44.56C918.482 44.24 918.514 43.9147 918.578 43.584ZM926.017 43.6C926.06 43.376 926.082 43.136 926.082 42.88C926.082 42.1013 925.847 41.488 925.378 41.04C924.919 40.5813 924.332 40.352 923.618 40.352C923.074 40.352 922.551 40.48 922.049 40.736C921.559 40.992 921.138 41.3653 920.786 41.856C920.434 42.3467 920.199 42.9227 920.082 43.584C920.039 43.808 920.018 44.0533 920.018 44.32C920.018 45.1093 920.247 45.7333 920.706 46.192C921.164 46.64 921.751 46.864 922.466 46.864C923.01 46.864 923.527 46.736 924.018 46.48C924.519 46.2133 924.946 45.8347 925.298 45.344C925.66 44.8427 925.9 44.2613 926.017 43.6ZM934.526 39.088C935.262 39.088 935.897 39.232 936.43 39.52C936.974 39.7973 937.385 40.192 937.662 40.704C937.95 41.2053 938.094 41.7813 938.094 42.432C938.094 42.656 938.067 42.928 938.014 43.248C937.971 43.5253 937.902 43.8133 937.806 44.112H930.798C930.777 44.3253 930.766 44.48 930.766 44.576C930.766 45.312 930.985 45.888 931.422 46.304C931.87 46.7093 932.451 46.912 933.166 46.912C933.795 46.912 934.345 46.768 934.814 46.48C935.294 46.1813 935.657 45.7867 935.902 45.296H937.47C937.086 46.1387 936.494 46.8267 935.694 47.36C934.905 47.8827 933.987 48.144 932.942 48.144C931.843 48.144 930.958 47.8293 930.286 47.2C929.625 46.56 929.294 45.6907 929.294 44.592C929.294 44.2827 929.326 43.952 929.39 43.6C929.55 42.6933 929.875 41.8987 930.366 41.216C930.857 40.5333 931.459 40.0107 932.174 39.648C932.899 39.2747 933.683 39.088 934.526 39.088ZM936.542 43.056C936.574 42.8427 936.59 42.6453 936.59 42.464C936.59 41.7813 936.371 41.2533 935.934 40.88C935.507 40.5067 934.947 40.32 934.254 40.32C933.507 40.32 932.83 40.5653 932.222 41.056C931.614 41.536 931.203 42.2027 930.99 43.056H936.542ZM941.296 45.6C941.264 45.76 941.248 45.8987 941.248 46.016C941.248 46.2827 941.328 46.4747 941.488 46.592C941.659 46.7093 941.931 46.768 942.304 46.768H943.376L943.152 48H941.84C941.147 48 940.624 47.8667 940.272 47.6C939.931 47.3333 939.76 46.896 939.76 46.288C939.76 46.0533 939.781 45.824 939.824 45.6L940.736 40.432H939.616L939.824 39.232H940.96L941.344 37.024H942.816L942.432 39.232H944.704L944.496 40.432H942.208L941.296 45.6ZM950.276 39.088C951.012 39.088 951.647 39.232 952.18 39.52C952.724 39.7973 953.135 40.192 953.412 40.704C953.7 41.2053 953.844 41.7813 953.844 42.432C953.844 42.656 953.817 42.928 953.764 43.248C953.721 43.5253 953.652 43.8133 953.556 44.112H946.548C946.527 44.3253 946.516 44.48 946.516 44.576C946.516 45.312 946.735 45.888 947.172 46.304C947.62 46.7093 948.201 46.912 948.916 46.912C949.545 46.912 950.095 46.768 950.564 46.48C951.044 46.1813 951.407 45.7867 951.652 45.296H953.22C952.836 46.1387 952.244 46.8267 951.444 47.36C950.655 47.8827 949.737 48.144 948.692 48.144C947.593 48.144 946.708 47.8293 946.036 47.2C945.375 46.56 945.044 45.6907 945.044 44.592C945.044 44.2827 945.076 43.952 945.14 43.6C945.3 42.6933 945.625 41.8987 946.116 41.216C946.607 40.5333 947.209 40.0107 947.924 39.648C948.649 39.2747 949.433 39.088 950.276 39.088ZM952.292 43.056C952.324 42.8427 952.34 42.6453 952.34 42.464C952.34 41.7813 952.121 41.2533 951.684 40.88C951.257 40.5067 950.697 40.32 950.004 40.32C949.257 40.32 948.58 40.5653 947.972 41.056C947.364 41.536 946.953 42.2027 946.74 43.056H952.292ZM958.358 43.616L961.718 48H959.734L956.982 44.144L956.294 48H954.838L956.934 36.16H958.39L957.158 43.104L961.222 39.232H963.238L958.358 43.616ZM966.16 48.144C965.243 48.144 964.491 47.9253 963.904 47.488C963.318 47.0507 963.024 46.464 963.024 45.728C963.024 45.5893 963.03 45.488 963.04 45.424H964.464C964.422 45.8827 964.555 46.256 964.864 46.544C965.184 46.832 965.643 46.976 966.24 46.976C966.838 46.976 967.318 46.864 967.68 46.64C968.054 46.4053 968.24 46.08 968.24 45.664C968.24 45.312 968.091 45.0347 967.792 44.832C967.494 44.6293 967.035 44.4107 966.416 44.176C965.872 43.9733 965.424 43.7813 965.072 43.6C964.72 43.4187 964.422 43.168 964.176 42.848C963.931 42.5173 963.808 42.1013 963.808 41.6C963.808 41.1093 963.947 40.672 964.224 40.288C964.512 39.904 964.907 39.6107 965.408 39.408C965.92 39.1947 966.502 39.088 967.152 39.088C968.048 39.088 968.784 39.312 969.36 39.76C969.936 40.208 970.224 40.7947 970.224 41.52C970.224 41.6587 970.219 41.7653 970.208 41.84H968.816L968.832 41.648C968.832 41.2213 968.667 40.8853 968.336 40.64C968.016 40.384 967.59 40.256 967.056 40.256C966.534 40.256 966.102 40.3733 965.76 40.608C965.43 40.8427 965.264 41.1573 965.264 41.552C965.264 41.9253 965.419 42.2187 965.728 42.432C966.038 42.6453 966.518 42.88 967.168 43.136C967.712 43.3493 968.15 43.5467 968.48 43.728C968.811 43.8987 969.094 44.1387 969.328 44.448C969.563 44.7573 969.68 45.1467 969.68 45.616C969.68 46.128 969.526 46.576 969.216 46.96C968.918 47.344 968.502 47.6373 967.968 47.84C967.435 48.0427 966.832 48.144 966.16 48.144ZM973.976 37.808C973.741 37.808 973.544 37.7333 973.384 37.584C973.234 37.424 973.16 37.2267 973.16 36.992C973.16 36.672 973.277 36.4 973.512 36.176C973.746 35.9413 974.018 35.824 974.328 35.824C974.573 35.824 974.77 35.8987 974.92 36.048C975.069 36.1973 975.144 36.3947 975.144 36.64C975.144 36.96 975.026 37.2373 974.792 37.472C974.557 37.696 974.285 37.808 973.976 37.808ZM974.44 39.232L972.888 48H971.432L972.984 39.232H974.44ZM990.695 36.848L988.727 48H987.271L988.167 42.912H982.503L981.591 48H980.135L982.119 36.848H983.575L982.695 41.776H988.375L989.239 36.848H990.695ZM991.421 43.584C991.581 42.688 991.901 41.904 992.381 41.232C992.872 40.5493 993.464 40.0213 994.157 39.648C994.861 39.2747 995.608 39.088 996.397 39.088C997.165 39.088 997.8 39.2533 998.301 39.584C998.803 39.9147 999.149 40.3307 999.341 40.832L999.629 39.232H1001.1L999.549 48H998.077L998.381 46.368C997.997 46.88 997.491 47.3067 996.861 47.648C996.232 47.9787 995.539 48.144 994.781 48.144C994.099 48.144 993.496 48 992.973 47.712C992.451 47.4133 992.045 46.992 991.757 46.448C991.469 45.904 991.325 45.2747 991.325 44.56C991.325 44.24 991.357 43.9147 991.421 43.584ZM998.861 43.6C998.904 43.376 998.925 43.136 998.925 42.88C998.925 42.1013 998.691 41.488 998.221 41.04C997.763 40.5813 997.176 40.352 996.461 40.352C995.917 40.352 995.395 40.48 994.893 40.736C994.403 40.992 993.981 41.3653 993.629 41.856C993.277 42.3467 993.043 42.9227 992.925 43.584C992.883 43.808 992.861 44.0533 992.861 44.32C992.861 45.1093 993.091 45.7333 993.549 46.192C994.008 46.64 994.595 46.864 995.309 46.864C995.853 46.864 996.371 46.736 996.861 46.48C997.363 46.2133 997.789 45.8347 998.141 45.344C998.504 44.8427 998.744 44.2613 998.861 43.6ZM1014.14 39.072C1015.03 39.072 1015.75 39.3173 1016.28 39.808C1016.83 40.288 1017.1 40.992 1017.1 41.92C1017.1 42.2613 1017.07 42.5653 1017.02 42.832L1016.11 48H1014.67L1015.55 43.04C1015.59 42.816 1015.61 42.576 1015.61 42.32C1015.61 41.6693 1015.43 41.1787 1015.08 40.848C1014.74 40.5067 1014.26 40.336 1013.63 40.336C1012.9 40.336 1012.28 40.56 1011.75 41.008C1011.24 41.4453 1010.89 42.08 1010.7 42.912L1009.79 48H1008.35L1009.23 43.04C1009.27 42.7947 1009.29 42.5493 1009.29 42.304C1009.29 41.664 1009.11 41.1787 1008.76 40.848C1008.42 40.5067 1007.94 40.336 1007.31 40.336C1006.55 40.336 1005.9 40.5813 1005.37 41.072C1004.84 41.552 1004.49 42.2507 1004.33 43.168V43.136L1003.47 48H1002.01L1003.56 39.232H1005.02L1004.79 40.496C1005.16 40.0373 1005.6 39.6853 1006.14 39.44C1006.67 39.1947 1007.23 39.072 1007.82 39.072C1008.55 39.072 1009.17 39.2373 1009.67 39.568C1010.19 39.8987 1010.52 40.384 1010.68 41.024C1011.04 40.4053 1011.54 39.9253 1012.15 39.584C1012.78 39.2427 1013.44 39.072 1014.14 39.072ZM1018.72 43.584C1018.88 42.688 1019.2 41.904 1019.68 41.232C1020.17 40.5493 1020.76 40.0213 1021.45 39.648C1022.16 39.2747 1022.9 39.088 1023.69 39.088C1024.46 39.088 1025.1 39.2533 1025.6 39.584C1026.1 39.9147 1026.45 40.3307 1026.64 40.832L1026.93 39.232H1028.4L1026.85 48H1025.37L1025.68 46.368C1025.29 46.88 1024.79 47.3067 1024.16 47.648C1023.53 47.9787 1022.84 48.144 1022.08 48.144C1021.4 48.144 1020.79 48 1020.27 47.712C1019.75 47.4133 1019.34 46.992 1019.05 46.448C1018.77 45.904 1018.62 45.2747 1018.62 44.56C1018.62 44.24 1018.65 43.9147 1018.72 43.584ZM1026.16 43.6C1026.2 43.376 1026.22 43.136 1026.22 42.88C1026.22 42.1013 1025.99 41.488 1025.52 41.04C1025.06 40.5813 1024.47 40.352 1023.76 40.352C1023.21 40.352 1022.69 40.48 1022.19 40.736C1021.7 40.992 1021.28 41.3653 1020.93 41.856C1020.57 42.3467 1020.34 42.9227 1020.22 43.584C1020.18 43.808 1020.16 44.0533 1020.16 44.32C1020.16 45.1093 1020.39 45.7333 1020.85 46.192C1021.3 46.64 1021.89 46.864 1022.61 46.864C1023.15 46.864 1023.67 46.736 1024.16 46.48C1024.66 46.2133 1025.09 45.8347 1025.44 45.344C1025.8 44.8427 1026.04 44.2613 1026.16 43.6ZM893.264 64.112C893.104 65.04 892.651 65.8133 891.904 66.432C891.157 67.04 890.139 67.344 888.848 67.344H886.704L885.872 72H884.416L886.4 60.848H890C891.109 60.848 891.941 61.088 892.496 61.568C893.051 62.0373 893.328 62.6667 893.328 63.456C893.328 63.5947 893.307 63.8133 893.264 64.112ZM889.056 66.192C889.856 66.192 890.48 66.0107 890.928 65.648C891.376 65.2747 891.659 64.7627 891.776 64.112C891.808 63.92 891.824 63.744 891.824 63.584C891.824 62.528 891.147 62 889.792 62H887.648L886.912 66.192H889.056ZM893.906 67.584C894.066 66.688 894.386 65.904 894.866 65.232C895.356 64.5493 895.948 64.0213 896.642 63.648C897.346 63.2747 898.092 63.088 898.882 63.088C899.65 63.088 900.284 63.2533 900.786 63.584C901.287 63.9147 901.634 64.3307 901.826 64.832L902.114 63.232H903.586L902.034 72H900.562L900.866 70.368C900.482 70.88 899.975 71.3067 899.346 71.648C898.716 71.9787 898.023 72.144 897.266 72.144C896.583 72.144 895.98 72 895.458 71.712C894.935 71.4133 894.53 70.992 894.242 70.448C893.954 69.904 893.81 69.2747 893.81 68.56C893.81 68.24 893.842 67.9147 893.906 67.584ZM901.346 67.6C901.388 67.376 901.41 67.136 901.41 66.88C901.41 66.1013 901.175 65.488 900.706 65.04C900.247 64.5813 899.66 64.352 898.946 64.352C898.402 64.352 897.879 64.48 897.378 64.736C896.887 64.992 896.466 65.3653 896.114 65.856C895.762 66.3467 895.527 66.9227 895.41 67.584C895.367 67.808 895.346 68.0533 895.346 68.32C895.346 69.1093 895.575 69.7333 896.034 70.192C896.492 70.64 897.079 70.864 897.794 70.864C898.338 70.864 898.855 70.736 899.346 70.48C899.847 70.2133 900.274 69.8347 900.626 69.344C900.988 68.8427 901.228 68.2613 901.346 67.6ZM904.718 67.584C904.878 66.688 905.198 65.904 905.678 65.232C906.169 64.5493 906.766 64.0213 907.47 63.648C908.174 63.2747 908.921 63.088 909.71 63.088C910.382 63.088 910.985 63.248 911.518 63.568C912.051 63.8773 912.43 64.288 912.654 64.8L913.47 60.16H914.942L912.846 72H911.374L911.678 70.352C911.305 70.8747 910.803 71.3067 910.174 71.648C909.545 71.9787 908.851 72.144 908.094 72.144C907.411 72.144 906.809 72 906.286 71.712C905.763 71.4133 905.353 70.992 905.054 70.448C904.766 69.904 904.622 69.2747 904.622 68.56C904.622 68.24 904.654 67.9147 904.718 67.584ZM912.158 67.6C912.201 67.376 912.222 67.136 912.222 66.88C912.222 66.1013 911.987 65.488 911.518 65.04C911.059 64.5813 910.473 64.352 909.758 64.352C909.214 64.352 908.691 64.48 908.19 64.736C907.699 64.992 907.278 65.3653 906.926 65.856C906.574 66.3467 906.339 66.9227 906.222 67.584C906.179 67.808 906.158 68.0533 906.158 68.32C906.158 69.1093 906.387 69.7333 906.846 70.192C907.305 70.64 907.891 70.864 908.606 70.864C909.15 70.864 909.667 70.736 910.158 70.48C910.659 70.2133 911.086 69.8347 911.438 69.344C911.801 68.8427 912.041 68.2613 912.158 67.6ZM915.531 67.584C915.691 66.688 916.011 65.904 916.491 65.232C916.981 64.5493 917.573 64.0213 918.267 63.648C918.971 63.2747 919.717 63.088 920.507 63.088C921.275 63.088 921.909 63.2533 922.411 63.584C922.912 63.9147 923.259 64.3307 923.451 64.832L923.739 63.232H925.211L923.659 72H922.187L922.491 70.368C922.107 70.88 921.6 71.3067 920.971 71.648C920.341 71.9787 919.648 72.144 918.891 72.144C918.208 72.144 917.605 72 917.083 71.712C916.56 71.4133 916.155 70.992 915.867 70.448C915.579 69.904 915.435 69.2747 915.435 68.56C915.435 68.24 915.467 67.9147 915.531 67.584ZM922.971 67.6C923.013 67.376 923.035 67.136 923.035 66.88C923.035 66.1013 922.8 65.488 922.331 65.04C921.872 64.5813 921.285 64.352 920.571 64.352C920.027 64.352 919.504 64.48 919.003 64.736C918.512 64.992 918.091 65.3653 917.739 65.856C917.387 66.3467 917.152 66.9227 917.035 67.584C916.992 67.808 916.971 68.0533 916.971 68.32C916.971 69.1093 917.2 69.7333 917.659 70.192C918.117 70.64 918.704 70.864 919.419 70.864C919.963 70.864 920.48 70.736 920.971 70.48C921.472 70.2133 921.899 69.8347 922.251 69.344C922.613 68.8427 922.853 68.2613 922.971 67.6ZM939.717 60.848L939.509 61.984H936.469L934.709 72H933.253L935.013 61.984H931.973L932.181 60.848H939.717ZM939.765 67.584C939.925 66.688 940.245 65.904 940.725 65.232C941.216 64.5493 941.808 64.0213 942.501 63.648C943.205 63.2747 943.952 63.088 944.741 63.088C945.509 63.088 946.144 63.2533 946.645 63.584C947.146 63.9147 947.493 64.3307 947.685 64.832L947.973 63.232H949.445L947.893 72H946.421L946.725 70.368C946.341 70.88 945.834 71.3067 945.205 71.648C944.576 71.9787 943.882 72.144 943.125 72.144C942.442 72.144 941.84 72 941.317 71.712C940.794 71.4133 940.389 70.992 940.101 70.448C939.813 69.904 939.669 69.2747 939.669 68.56C939.669 68.24 939.701 67.9147 939.765 67.584ZM947.205 67.6C947.248 67.376 947.269 67.136 947.269 66.88C947.269 66.1013 947.034 65.488 946.565 65.04C946.106 64.5813 945.52 64.352 944.805 64.352C944.261 64.352 943.738 64.48 943.237 64.736C942.746 64.992 942.325 65.3653 941.973 65.856C941.621 66.3467 941.386 66.9227 941.269 67.584C941.226 67.808 941.205 68.0533 941.205 68.32C941.205 69.1093 941.434 69.7333 941.893 70.192C942.352 70.64 942.938 70.864 943.653 70.864C944.197 70.864 944.714 70.736 945.205 70.48C945.706 70.2133 946.133 69.8347 946.485 69.344C946.848 68.8427 947.088 68.2613 947.205 67.6ZM956.21 63.072C957.116 63.072 957.842 63.3173 958.385 63.808C958.93 64.288 959.202 64.992 959.202 65.92C959.202 66.2613 959.175 66.5653 959.122 66.832L958.21 72H956.77L957.65 67.04C957.692 66.816 957.714 66.5813 957.714 66.336C957.714 65.6853 957.532 65.1893 957.17 64.848C956.818 64.5067 956.322 64.336 955.682 64.336C954.914 64.336 954.258 64.576 953.714 65.056C953.18 65.536 952.834 66.2347 952.674 67.152V67.12L951.81 72H950.354L951.906 63.232H953.362L953.138 64.496C953.5 64.0373 953.954 63.6853 954.498 63.44C955.042 63.1947 955.612 63.072 956.21 63.072ZM960.812 67.584C960.972 66.688 961.292 65.904 961.772 65.232C962.263 64.5493 962.855 64.0213 963.548 63.648C964.252 63.2747 964.999 63.088 965.788 63.088C966.556 63.088 967.191 63.2533 967.692 63.584C968.193 63.9147 968.54 64.3307 968.732 64.832L969.02 63.232H970.492L968.94 72H967.468L967.772 70.368C967.388 70.88 966.881 71.3067 966.252 71.648C965.623 71.9787 964.929 72.144 964.172 72.144C963.489 72.144 962.887 72 962.364 71.712C961.841 71.4133 961.436 70.992 961.148 70.448C960.86 69.904 960.716 69.2747 960.716 68.56C960.716 68.24 960.748 67.9147 960.812 67.584ZM968.252 67.6C968.295 67.376 968.316 67.136 968.316 66.88C968.316 66.1013 968.081 65.488 967.612 65.04C967.153 64.5813 966.567 64.352 965.852 64.352C965.308 64.352 964.785 64.48 964.284 64.736C963.793 64.992 963.372 65.3653 963.02 65.856C962.668 66.3467 962.433 66.9227 962.316 67.584C962.273 67.808 962.252 68.0533 962.252 68.32C962.252 69.1093 962.481 69.7333 962.94 70.192C963.399 70.64 963.985 70.864 964.7 70.864C965.244 70.864 965.761 70.736 966.252 70.48C966.753 70.2133 967.18 69.8347 967.532 69.344C967.895 68.8427 968.135 68.2613 968.252 67.6ZM983.528 63.072C984.424 63.072 985.139 63.3173 985.672 63.808C986.216 64.288 986.488 64.992 986.488 65.92C986.488 66.2613 986.462 66.5653 986.408 66.832L985.496 72H984.056L984.936 67.04C984.979 66.816 985 66.576 985 66.32C985 65.6693 984.824 65.1787 984.472 64.848C984.131 64.5067 983.646 64.336 983.016 64.336C982.291 64.336 981.667 64.56 981.144 65.008C980.632 65.4453 980.28 66.08 980.088 66.912L979.176 72H977.736L978.616 67.04C978.659 66.7947 978.68 66.5493 978.68 66.304C978.68 65.664 978.504 65.1787 978.152 64.848C977.811 64.5067 977.326 64.336 976.696 64.336C975.939 64.336 975.294 64.5813 974.76 65.072C974.227 65.552 973.88 66.2507 973.72 67.168V67.136L972.856 72H971.4L972.952 63.232H974.408L974.184 64.496C974.547 64.0373 974.995 63.6853 975.528 63.44C976.062 63.1947 976.622 63.072 977.208 63.072C977.944 63.072 978.563 63.2373 979.064 63.568C979.576 63.8987 979.912 64.384 980.072 65.024C980.435 64.4053 980.926 63.9253 981.544 63.584C982.174 63.2427 982.835 63.072 983.528 63.072ZM988.109 67.584C988.269 66.688 988.589 65.904 989.069 65.232C989.559 64.5493 990.151 64.0213 990.845 63.648C991.549 63.2747 992.295 63.088 993.085 63.088C993.853 63.088 994.487 63.2533 994.989 63.584C995.49 63.9147 995.837 64.3307 996.029 64.832L996.317 63.232H997.789L996.237 72H994.765L995.069 70.368C994.685 70.88 994.178 71.3067 993.549 71.648C992.919 71.9787 992.226 72.144 991.469 72.144C990.786 72.144 990.183 72 989.661 71.712C989.138 71.4133 988.733 70.992 988.445 70.448C988.157 69.904 988.013 69.2747 988.013 68.56C988.013 68.24 988.045 67.9147 988.109 67.584ZM995.549 67.6C995.591 67.376 995.613 67.136 995.613 66.88C995.613 66.1013 995.378 65.488 994.909 65.04C994.45 64.5813 993.863 64.352 993.149 64.352C992.605 64.352 992.082 64.48 991.581 64.736C991.09 64.992 990.669 65.3653 990.317 65.856C989.965 66.3467 989.73 66.9227 989.613 67.584C989.57 67.808 989.549 68.0533 989.549 68.32C989.549 69.1093 989.778 69.7333 990.237 70.192C990.695 70.64 991.282 70.864 991.997 70.864C992.541 70.864 993.058 70.736 993.549 70.48C994.05 70.2133 994.477 69.8347 994.829 69.344C995.191 68.8427 995.431 68.2613 995.549 67.6ZM1004.55 63.072C1005.46 63.072 1006.19 63.3173 1006.73 63.808C1007.27 64.288 1007.55 64.992 1007.55 65.92C1007.55 66.2613 1007.52 66.5653 1007.47 66.832L1006.55 72H1005.11L1005.99 67.04C1006.04 66.816 1006.06 66.5813 1006.06 66.336C1006.06 65.6853 1005.88 65.1893 1005.51 64.848C1005.16 64.5067 1004.67 64.336 1004.03 64.336C1003.26 64.336 1002.6 64.576 1002.06 65.056C1001.52 65.536 1001.18 66.2347 1001.02 67.152V67.12L1000.15 72H998.697L1000.25 63.232H1001.71L1001.48 64.496C1001.84 64.0373 1002.3 63.6853 1002.84 63.44C1003.39 63.1947 1003.96 63.072 1004.55 63.072Z" fill="black"/>
<path d="M499.979 17.78C499.299 17.78 498.719 17.5467 498.239 17.08C497.772 16.6 497.539 16.02 497.539 15.34C497.539 14.6467 497.772 14.0667 498.239 13.6C498.719 13.12 499.299 12.88 499.979 12.88C500.672 12.88 501.259 13.12 501.739 13.6C502.219 14.0667 502.459 14.6467 502.459 15.34C502.459 16.02 502.219 16.6 501.739 17.08C501.259 17.5467 500.672 17.78 499.979 17.78ZM518.36 8.06V22H516.54V8.06H518.36ZM526.802 10.84C528.135 10.84 529.215 11.2467 530.042 12.06C530.869 12.86 531.282 14.02 531.282 15.54V22H529.482V15.8C529.482 14.7067 529.209 13.8733 528.662 13.3C528.115 12.7133 527.369 12.42 526.422 12.42C525.462 12.42 524.695 12.72 524.122 13.32C523.562 13.92 523.282 14.7933 523.282 15.94V22H521.462V11.04H523.282V12.6C523.642 12.04 524.129 11.6067 524.742 11.3C525.369 10.9933 526.055 10.84 526.802 10.84ZM538.715 12.54H536.415V22H534.595V12.54H533.175V11.04H534.595V10.26C534.595 9.03333 534.908 8.14 535.535 7.58C536.175 7.00667 537.195 6.72 538.595 6.72V8.24C537.795 8.24 537.228 8.4 536.895 8.72C536.575 9.02667 536.415 9.54 536.415 10.26V11.04H538.715V12.54ZM545.617 22.18C544.59 22.18 543.657 21.9467 542.817 21.48C541.99 21.0133 541.337 20.3533 540.857 19.5C540.39 18.6333 540.157 17.6333 540.157 16.5C540.157 15.38 540.397 14.3933 540.877 13.54C541.37 12.6733 542.037 12.0133 542.877 11.56C543.717 11.0933 544.657 10.86 545.697 10.86C546.737 10.86 547.677 11.0933 548.517 11.56C549.357 12.0133 550.017 12.6667 550.497 13.52C550.99 14.3733 551.237 15.3667 551.237 16.5C551.237 17.6333 550.984 18.6333 550.477 19.5C549.984 20.3533 549.31 21.0133 548.457 21.48C547.604 21.9467 546.657 22.18 545.617 22.18ZM545.617 20.58C546.27 20.58 546.884 20.4267 547.457 20.12C548.03 19.8133 548.49 19.3533 548.837 18.74C549.197 18.1267 549.377 17.38 549.377 16.5C549.377 15.62 549.204 14.8733 548.857 14.26C548.51 13.6467 548.057 13.1933 547.497 12.9C546.937 12.5933 546.33 12.44 545.677 12.44C545.01 12.44 544.397 12.5933 543.837 12.9C543.29 13.1933 542.85 13.6467 542.517 14.26C542.184 14.8733 542.017 15.62 542.017 16.5C542.017 17.3933 542.177 18.1467 542.497 18.76C542.83 19.3733 543.27 19.8333 543.817 20.14C544.364 20.4333 544.964 20.58 545.617 20.58ZM555.45 12.82C555.77 12.1933 556.223 11.7067 556.81 11.36C557.41 11.0133 558.137 10.84 558.99 10.84V12.72H558.51C556.47 12.72 555.45 13.8267 555.45 16.04V22H553.63V11.04H555.45V12.82ZM574.271 10.84C575.124 10.84 575.884 11.02 576.551 11.38C577.217 11.7267 577.744 12.2533 578.131 12.96C578.517 13.6667 578.711 14.5267 578.711 15.54V22H576.911V15.8C576.911 14.7067 576.637 13.8733 576.091 13.3C575.557 12.7133 574.831 12.42 573.911 12.42C572.964 12.42 572.211 12.7267 571.651 13.34C571.091 13.94 570.811 14.8133 570.811 15.96V22H569.011V15.8C569.011 14.7067 568.737 13.8733 568.191 13.3C567.657 12.7133 566.931 12.42 566.011 12.42C565.064 12.42 564.311 12.7267 563.751 13.34C563.191 13.94 562.911 14.8133 562.911 15.96V22H561.091V11.04H562.911V12.62C563.271 12.0467 563.751 11.6067 564.351 11.3C564.964 10.9933 565.637 10.84 566.371 10.84C567.291 10.84 568.104 11.0467 568.811 11.46C569.517 11.8733 570.044 12.48 570.391 13.28C570.697 12.5067 571.204 11.9067 571.911 11.48C572.617 11.0533 573.404 10.84 574.271 10.84ZM581.016 16.48C581.016 15.36 581.243 14.38 581.696 13.54C582.15 12.6867 582.77 12.0267 583.556 11.56C584.356 11.0933 585.243 10.86 586.216 10.86C587.176 10.86 588.01 11.0667 588.716 11.48C589.423 11.8933 589.95 12.4133 590.296 13.04V11.04H592.136V22H590.296V19.96C589.936 20.6 589.396 21.1333 588.676 21.56C587.97 21.9733 587.143 22.18 586.196 22.18C585.223 22.18 584.343 21.94 583.556 21.46C582.77 20.98 582.15 20.3067 581.696 19.44C581.243 18.5733 581.016 17.5867 581.016 16.48ZM590.296 16.5C590.296 15.6733 590.13 14.9533 589.796 14.34C589.463 13.7267 589.01 13.26 588.436 12.94C587.876 12.6067 587.256 12.44 586.576 12.44C585.896 12.44 585.276 12.6 584.716 12.92C584.156 13.24 583.71 13.7067 583.376 14.32C583.043 14.9333 582.876 15.6533 582.876 16.48C582.876 17.32 583.043 18.0533 583.376 18.68C583.71 19.2933 584.156 19.7667 584.716 20.1C585.276 20.42 585.896 20.58 586.576 20.58C587.256 20.58 587.876 20.42 588.436 20.1C589.01 19.7667 589.463 19.2933 589.796 18.68C590.13 18.0533 590.296 17.3267 590.296 16.5ZM599.092 22.18C598.252 22.18 597.499 22.04 596.832 21.76C596.165 21.4667 595.639 21.0667 595.252 20.56C594.865 20.04 594.652 19.4467 594.612 18.78H596.492C596.545 19.3267 596.799 19.7733 597.252 20.12C597.719 20.4667 598.325 20.64 599.072 20.64C599.765 20.64 600.312 20.4867 600.712 20.18C601.112 19.8733 601.312 19.4867 601.312 19.02C601.312 18.54 601.099 18.1867 600.672 17.96C600.245 17.72 599.585 17.4867 598.692 17.26C597.879 17.0467 597.212 16.8333 596.692 16.62C596.185 16.3933 595.745 16.0667 595.372 15.64C595.012 15.2 594.832 14.6267 594.832 13.92C594.832 13.36 594.999 12.8467 595.332 12.38C595.665 11.9133 596.139 11.5467 596.752 11.28C597.365 11 598.065 10.86 598.852 10.86C600.065 10.86 601.045 11.1667 601.792 11.78C602.539 12.3933 602.939 13.2333 602.992 14.3H601.172C601.132 13.7267 600.899 13.2667 600.472 12.92C600.059 12.5733 599.499 12.4 598.792 12.4C598.139 12.4 597.619 12.54 597.232 12.82C596.845 13.1 596.652 13.4667 596.652 13.92C596.652 14.28 596.765 14.58 596.992 14.82C597.232 15.0467 597.525 15.2333 597.872 15.38C598.232 15.5133 598.725 15.6667 599.352 15.84C600.139 16.0533 600.779 16.2667 601.272 16.48C601.765 16.68 602.185 16.9867 602.532 17.4C602.892 17.8133 603.079 18.3533 603.092 19.02C603.092 19.62 602.925 20.16 602.592 20.64C602.259 21.12 601.785 21.5 601.172 21.78C600.572 22.0467 599.879 22.18 599.092 22.18ZM606.601 9.26C606.254 9.26 605.961 9.14 605.721 8.9C605.481 8.66 605.361 8.36667 605.361 8.02C605.361 7.67333 605.481 7.38 605.721 7.14C605.961 6.9 606.254 6.78 606.601 6.78C606.934 6.78 607.214 6.9 607.441 7.14C607.681 7.38 607.801 7.67333 607.801 8.02C607.801 8.36667 607.681 8.66 607.441 8.9C607.214 9.14 606.934 9.26 606.601 9.26ZM607.481 11.04V22H605.661V11.04H607.481ZM624.495 8.06V9.54H620.695V22H618.875V9.54H615.055V8.06H624.495ZM626.055 16.48C626.055 15.36 626.282 14.38 626.735 13.54C627.189 12.6867 627.809 12.0267 628.595 11.56C629.395 11.0933 630.282 10.86 631.255 10.86C632.215 10.86 633.049 11.0667 633.755 11.48C634.462 11.8933 634.989 12.4133 635.335 13.04V11.04H637.175V22H635.335V19.96C634.975 20.6 634.435 21.1333 633.715 21.56C633.009 21.9733 632.182 22.18 631.235 22.18C630.262 22.18 629.382 21.94 628.595 21.46C627.809 20.98 627.189 20.3067 626.735 19.44C626.282 18.5733 626.055 17.5867 626.055 16.48ZM635.335 16.5C635.335 15.6733 635.169 14.9533 634.835 14.34C634.502 13.7267 634.049 13.26 633.475 12.94C632.915 12.6067 632.295 12.44 631.615 12.44C630.935 12.44 630.315 12.6 629.755 12.92C629.195 13.24 628.749 13.7067 628.415 14.32C628.082 14.9333 627.915 15.6533 627.915 16.48C627.915 17.32 628.082 18.0533 628.415 18.68C628.749 19.2933 629.195 19.7667 629.755 20.1C630.315 20.42 630.935 20.58 631.615 20.58C632.295 20.58 632.915 20.42 633.475 20.1C634.049 19.7667 634.502 19.2933 634.835 18.68C635.169 18.0533 635.335 17.3267 635.335 16.5ZM645.591 10.84C646.924 10.84 648.004 11.2467 648.831 12.06C649.658 12.86 650.071 14.02 650.071 15.54V22H648.271V15.8C648.271 14.7067 647.998 13.8733 647.451 13.3C646.904 12.7133 646.158 12.42 645.211 12.42C644.251 12.42 643.484 12.72 642.911 13.32C642.351 13.92 642.071 14.7933 642.071 15.94V22H640.251V11.04H642.071V12.6C642.431 12.04 642.918 11.6067 643.531 11.3C644.158 10.9933 644.844 10.84 645.591 10.84ZM652.364 16.48C652.364 15.36 652.591 14.38 653.044 13.54C653.497 12.6867 654.117 12.0267 654.904 11.56C655.704 11.0933 656.591 10.86 657.564 10.86C658.524 10.86 659.357 11.0667 660.064 11.48C660.771 11.8933 661.297 12.4133 661.644 13.04V11.04H663.484V22H661.644V19.96C661.284 20.6 660.744 21.1333 660.024 21.56C659.317 21.9733 658.491 22.18 657.544 22.18C656.571 22.18 655.691 21.94 654.904 21.46C654.117 20.98 653.497 20.3067 653.044 19.44C652.591 18.5733 652.364 17.5867 652.364 16.48ZM661.644 16.5C661.644 15.6733 661.477 14.9533 661.144 14.34C660.811 13.7267 660.357 13.26 659.784 12.94C659.224 12.6067 658.604 12.44 657.924 12.44C657.244 12.44 656.624 12.6 656.064 12.92C655.504 13.24 655.057 13.7067 654.724 14.32C654.391 14.9333 654.224 15.6533 654.224 16.48C654.224 17.32 654.391 18.0533 654.724 18.68C655.057 19.2933 655.504 19.7667 656.064 20.1C656.624 20.42 657.244 20.58 657.924 20.58C658.604 20.58 659.224 20.42 659.784 20.1C660.357 19.7667 660.811 19.2933 661.144 18.68C661.477 18.0533 661.644 17.3267 661.644 16.5ZM679.74 10.84C680.593 10.84 681.353 11.02 682.02 11.38C682.686 11.7267 683.213 12.2533 683.6 12.96C683.986 13.6667 684.18 14.5267 684.18 15.54V22H682.38V15.8C682.38 14.7067 682.106 13.8733 681.56 13.3C681.026 12.7133 680.3 12.42 679.38 12.42C678.433 12.42 677.68 12.7267 677.12 13.34C676.56 13.94 676.28 14.8133 676.28 15.96V22H674.48V15.8C674.48 14.7067 674.206 13.8733 673.66 13.3C673.126 12.7133 672.4 12.42 671.48 12.42C670.533 12.42 669.78 12.7267 669.22 13.34C668.66 13.94 668.38 14.8133 668.38 15.96V22H666.56V11.04H668.38V12.62C668.74 12.0467 669.22 11.6067 669.82 11.3C670.433 10.9933 671.106 10.84 671.84 10.84C672.76 10.84 673.573 11.0467 674.28 11.46C674.986 11.8733 675.513 12.48 675.86 13.28C676.166 12.5067 676.673 11.9067 677.38 11.48C678.086 11.0533 678.873 10.84 679.74 10.84ZM686.485 16.48C686.485 15.36 686.712 14.38 687.165 13.54C687.618 12.6867 688.238 12.0267 689.025 11.56C689.825 11.0933 690.712 10.86 691.685 10.86C692.645 10.86 693.478 11.0667 694.185 11.48C694.892 11.8933 695.418 12.4133 695.765 13.04V11.04H697.605V22H695.765V19.96C695.405 20.6 694.865 21.1333 694.145 21.56C693.438 21.9733 692.612 22.18 691.665 22.18C690.692 22.18 689.812 21.94 689.025 21.46C688.238 20.98 687.618 20.3067 687.165 19.44C686.712 18.5733 686.485 17.5867 686.485 16.48ZM695.765 16.5C695.765 15.6733 695.598 14.9533 695.265 14.34C694.932 13.7267 694.478 13.26 693.905 12.94C693.345 12.6067 692.725 12.44 692.045 12.44C691.365 12.44 690.745 12.6 690.185 12.92C689.625 13.24 689.178 13.7067 688.845 14.32C688.512 14.9333 688.345 15.6533 688.345 16.48C688.345 17.32 688.512 18.0533 688.845 18.68C689.178 19.2933 689.625 19.7667 690.185 20.1C690.745 20.42 691.365 20.58 692.045 20.58C692.725 20.58 693.345 20.42 693.905 20.1C694.478 19.7667 694.932 19.2933 695.265 18.68C695.598 18.0533 695.765 17.3267 695.765 16.5ZM706.021 10.84C707.354 10.84 708.434 11.2467 709.261 12.06C710.087 12.86 710.501 14.02 710.501 15.54V22H708.701V15.8C708.701 14.7067 708.427 13.8733 707.881 13.3C707.334 12.7133 706.587 12.42 705.641 12.42C704.681 12.42 703.914 12.72 703.341 13.32C702.781 13.92 702.501 14.7933 702.501 15.94V22H700.681V11.04H702.501V12.6C702.861 12.04 703.347 11.6067 703.961 11.3C704.587 10.9933 705.274 10.84 706.021 10.84Z" fill="black"/>
<path d="M867.979 17.78C867.299 17.78 866.719 17.5467 866.239 17.08C865.772 16.6 865.539 16.02 865.539 15.34C865.539 14.6467 865.772 14.0667 866.239 13.6C866.719 13.12 867.299 12.88 867.979 12.88C868.672 12.88 869.259 13.12 869.739 13.6C870.219 14.0667 870.459 14.6467 870.459 15.34C870.459 16.02 870.219 16.6 869.739 17.08C869.259 17.5467 868.672 17.78 867.979 17.78ZM888.88 8.06C890.4 8.06 891.713 8.34667 892.82 8.92C893.94 9.48 894.793 10.2867 895.38 11.34C895.98 12.3933 896.28 13.6333 896.28 15.06C896.28 16.4867 895.98 17.7267 895.38 18.78C894.793 19.82 893.94 20.62 892.82 21.18C891.713 21.7267 890.4 22 888.88 22H884.54V8.06H888.88ZM888.88 20.5C890.68 20.5 892.053 20.0267 893 19.08C893.947 18.12 894.42 16.78 894.42 15.06C894.42 13.3267 893.94 11.9733 892.98 11C892.033 10.0267 890.667 9.54 888.88 9.54H886.36V20.5H888.88ZM908.681 16.1C908.681 16.4467 908.661 16.8133 908.621 17.2H899.861C899.927 18.28 900.294 19.1267 900.961 19.74C901.641 20.34 902.461 20.64 903.421 20.64C904.207 20.64 904.861 20.46 905.381 20.1C905.914 19.7267 906.287 19.2333 906.501 18.62H908.461C908.167 19.6733 907.581 20.5333 906.701 21.2C905.821 21.8533 904.727 22.18 903.421 22.18C902.381 22.18 901.447 21.9467 900.621 21.48C899.807 21.0133 899.167 20.3533 898.701 19.5C898.234 18.6333 898.001 17.6333 898.001 16.5C898.001 15.3667 898.227 14.3733 898.681 13.52C899.134 12.6667 899.767 12.0133 900.581 11.56C901.407 11.0933 902.354 10.86 903.421 10.86C904.461 10.86 905.381 11.0867 906.181 11.54C906.981 11.9933 907.594 12.62 908.021 13.42C908.461 14.2067 908.681 15.1 908.681 16.1ZM906.801 15.72C906.801 15.0267 906.647 14.4333 906.341 13.94C906.034 13.4333 905.614 13.0533 905.081 12.8C904.561 12.5333 903.981 12.4 903.341 12.4C902.421 12.4 901.634 12.6933 900.981 13.28C900.341 13.8667 899.974 14.68 899.881 15.72H906.801ZM913.303 12.54V19C913.303 19.5333 913.416 19.9133 913.643 20.14C913.87 20.3533 914.263 20.46 914.823 20.46H916.163V22H914.523C913.51 22 912.75 21.7667 912.243 21.3C911.736 20.8333 911.483 20.0667 911.483 19V12.54H910.063V11.04H911.483V8.28H913.303V11.04H916.163V12.54H913.303ZM928.368 16.1C928.368 16.4467 928.348 16.8133 928.308 17.2H919.548C919.615 18.28 919.981 19.1267 920.648 19.74C921.328 20.34 922.148 20.64 923.108 20.64C923.895 20.64 924.548 20.46 925.068 20.1C925.601 19.7267 925.975 19.2333 926.188 18.62H928.148C927.855 19.6733 927.268 20.5333 926.388 21.2C925.508 21.8533 924.415 22.18 923.108 22.18C922.068 22.18 921.135 21.9467 920.308 21.48C919.495 21.0133 918.855 20.3533 918.388 19.5C917.921 18.6333 917.688 17.6333 917.688 16.5C917.688 15.3667 917.915 14.3733 918.368 13.52C918.821 12.6667 919.455 12.0133 920.268 11.56C921.095 11.0933 922.041 10.86 923.108 10.86C924.148 10.86 925.068 11.0867 925.868 11.54C926.668 11.9933 927.281 12.62 927.708 13.42C928.148 14.2067 928.368 15.1 928.368 16.1ZM926.488 15.72C926.488 15.0267 926.335 14.4333 926.028 13.94C925.721 13.4333 925.301 13.0533 924.768 12.8C924.248 12.5333 923.668 12.4 923.028 12.4C922.108 12.4 921.321 12.6933 920.668 13.28C920.028 13.8667 919.661 14.68 919.568 15.72H926.488ZM936.89 22L932.59 17.16V22H930.77V7.2H932.59V15.9L936.81 11.04H939.35L934.19 16.5L939.37 22H936.89ZM944.943 22.18C944.103 22.18 943.35 22.04 942.683 21.76C942.017 21.4667 941.49 21.0667 941.103 20.56C940.717 20.04 940.503 19.4467 940.463 18.78H942.343C942.397 19.3267 942.65 19.7733 943.103 20.12C943.57 20.4667 944.177 20.64 944.923 20.64C945.617 20.64 946.163 20.4867 946.563 20.18C946.963 19.8733 947.163 19.4867 947.163 19.02C947.163 18.54 946.95 18.1867 946.523 17.96C946.097 17.72 945.437 17.4867 944.543 17.26C943.73 17.0467 943.063 16.8333 942.543 16.62C942.037 16.3933 941.597 16.0667 941.223 15.64C940.863 15.2 940.683 14.6267 940.683 13.92C940.683 13.36 940.85 12.8467 941.183 12.38C941.517 11.9133 941.99 11.5467 942.603 11.28C943.217 11 943.917 10.86 944.703 10.86C945.917 10.86 946.897 11.1667 947.643 11.78C948.39 12.3933 948.79 13.2333 948.843 14.3H947.023C946.983 13.7267 946.75 13.2667 946.323 12.92C945.91 12.5733 945.35 12.4 944.643 12.4C943.99 12.4 943.47 12.54 943.083 12.82C942.697 13.1 942.503 13.4667 942.503 13.92C942.503 14.28 942.617 14.58 942.843 14.82C943.083 15.0467 943.377 15.2333 943.723 15.38C944.083 15.5133 944.577 15.6667 945.203 15.84C945.99 16.0533 946.63 16.2667 947.123 16.48C947.617 16.68 948.037 16.9867 948.383 17.4C948.743 17.8133 948.93 18.3533 948.943 19.02C948.943 19.62 948.777 20.16 948.443 20.64C948.11 21.12 947.637 21.5 947.023 21.78C946.423 22.0467 945.73 22.18 944.943 22.18ZM952.453 9.26C952.106 9.26 951.813 9.14 951.573 8.9C951.333 8.66 951.213 8.36667 951.213 8.02C951.213 7.67333 951.333 7.38 951.573 7.14C951.813 6.9 952.106 6.78 952.453 6.78C952.786 6.78 953.066 6.9 953.293 7.14C953.533 7.38 953.653 7.67333 953.653 8.02C953.653 8.36667 953.533 8.66 953.293 8.9C953.066 9.14 952.786 9.26 952.453 9.26ZM953.333 11.04V22H951.513V11.04H953.333ZM967.207 10.84C968.033 10.84 968.78 11.02 969.447 11.38C970.113 11.7267 970.633 12.2533 971.007 12.96C971.393 13.6667 971.587 14.5267 971.587 15.54V22H969.787V15.8C969.787 14.7067 969.513 13.8733 968.967 13.3C968.42 12.7133 967.673 12.42 966.727 12.42C965.767 12.42 965 12.72 964.427 13.32C963.867 13.92 963.587 14.7933 963.587 15.94V22H961.767V7.2H963.587V12.6C963.947 12.04 964.44 11.6067 965.067 11.3C965.707 10.9933 966.42 10.84 967.207 10.84ZM973.88 16.48C973.88 15.36 974.106 14.38 974.56 13.54C975.013 12.6867 975.633 12.0267 976.42 11.56C977.22 11.0933 978.106 10.86 979.08 10.86C980.04 10.86 980.873 11.0667 981.58 11.48C982.286 11.8933 982.813 12.4133 983.16 13.04V11.04H985V22H983.16V19.96C982.8 20.6 982.26 21.1333 981.54 21.56C980.833 21.9733 980.006 22.18 979.06 22.18C978.086 22.18 977.206 21.94 976.42 21.46C975.633 20.98 975.013 20.3067 974.56 19.44C974.106 18.5733 973.88 17.5867 973.88 16.48ZM983.16 16.5C983.16 15.6733 982.993 14.9533 982.66 14.34C982.326 13.7267 981.873 13.26 981.3 12.94C980.74 12.6067 980.12 12.44 979.44 12.44C978.76 12.44 978.14 12.6 977.58 12.92C977.02 13.24 976.573 13.7067 976.24 14.32C975.906 14.9333 975.74 15.6533 975.74 16.48C975.74 17.32 975.906 18.0533 976.24 18.68C976.573 19.2933 977.02 19.7667 977.58 20.1C978.14 20.42 978.76 20.58 979.44 20.58C980.12 20.58 980.74 20.42 981.3 20.1C981.873 19.7667 982.326 19.2933 982.66 18.68C982.993 18.0533 983.16 17.3267 983.16 16.5ZM1001.26 10.84C1002.11 10.84 1002.87 11.02 1003.54 11.38C1004.2 11.7267 1004.73 12.2533 1005.12 12.96C1005.5 13.6667 1005.7 14.5267 1005.7 15.54V22H1003.9V15.8C1003.9 14.7067 1003.62 13.8733 1003.08 13.3C1002.54 12.7133 1001.82 12.42 1000.9 12.42C999.948 12.42 999.195 12.7267 998.635 13.34C998.075 13.94 997.795 14.8133 997.795 15.96V22H995.995V15.8C995.995 14.7067 995.722 13.8733 995.175 13.3C994.642 12.7133 993.915 12.42 992.995 12.42C992.048 12.42 991.295 12.7267 990.735 13.34C990.175 13.94 989.895 14.8133 989.895 15.96V22H988.075V11.04H989.895V12.62C990.255 12.0467 990.735 11.6067 991.335 11.3C991.948 10.9933 992.622 10.84 993.355 10.84C994.275 10.84 995.088 11.0467 995.795 11.46C996.502 11.8733 997.028 12.48 997.375 13.28C997.682 12.5067 998.188 11.9067 998.895 11.48C999.602 11.0533 1000.39 10.84 1001.26 10.84ZM1008 16.48C1008 15.36 1008.23 14.38 1008.68 13.54C1009.13 12.6867 1009.75 12.0267 1010.54 11.56C1011.34 11.0933 1012.23 10.86 1013.2 10.86C1014.16 10.86 1014.99 11.0667 1015.7 11.48C1016.41 11.8933 1016.93 12.4133 1017.28 13.04V11.04H1019.12V22H1017.28V19.96C1016.92 20.6 1016.38 21.1333 1015.66 21.56C1014.95 21.9733 1014.13 22.18 1013.18 22.18C1012.21 22.18 1011.33 21.94 1010.54 21.46C1009.75 20.98 1009.13 20.3067 1008.68 19.44C1008.23 18.5733 1008 17.5867 1008 16.48ZM1017.28 16.5C1017.28 15.6733 1017.11 14.9533 1016.78 14.34C1016.45 13.7267 1015.99 13.26 1015.42 12.94C1014.86 12.6067 1014.24 12.44 1013.56 12.44C1012.88 12.44 1012.26 12.6 1011.7 12.92C1011.14 13.24 1010.69 13.7067 1010.36 14.32C1010.03 14.9333 1009.86 15.6533 1009.86 16.48C1009.86 17.32 1010.03 18.0533 1010.36 18.68C1010.69 19.2933 1011.14 19.7667 1011.7 20.1C1012.26 20.42 1012.88 20.58 1013.56 20.58C1014.24 20.58 1014.86 20.42 1015.42 20.1C1015.99 19.7667 1016.45 19.2933 1016.78 18.68C1017.11 18.0533 1017.28 17.3267 1017.28 16.5Z" fill="black"/>
<rect width="30" height="92" fill="#004225" fill-opacity="0.733333"/>
<rect x="1107.98" y="91.9948" width="30" height="92" transform="rotate(179.386 1107.98 91.9948)" fill="#004225" fill-opacity="0.733333"/>
<rect x="66" y="2" width="86" height="90" rx="20" fill="#D9D9D9"/>
<rect x="399" y="2" width="86" height="90" rx="20" fill="#D9D9D9"/>
<rect x="767" y="2" width="86" height="90" rx="20" fill="#D9D9D9"/>
<path d="M442 72C445.315 72 448.495 70.683 450.839 68.3388C453.183 65.9946 454.5 62.8152 454.5 59.5C457.815 59.5 460.995 58.183 463.339 55.8388C465.683 53.4946 467 50.3152 467 47C467 43.6848 465.683 40.5054 463.339 38.1612C460.995 35.817 457.815 34.5 454.5 34.5C454.5 31.1848 453.183 28.0054 450.839 25.6612C448.495 23.317 445.315 22 442 22C438.685 22 435.505 23.317 433.161 25.6612C430.817 28.0054 429.5 31.1848 429.5 34.5C426.185 34.5 423.005 35.817 420.661 38.1612C418.317 40.5054 417 43.6848 417 47C417 50.3152 418.317 53.4946 420.661 55.8388C423.005 58.183 426.185 59.5 429.5 59.5C429.5 62.8152 430.817 65.9946 433.161 68.3388C435.505 70.683 438.685 72 442 72ZM451.375 34.5C451.375 34.7292 451.344 34.9865 451.281 35.2719C449.581 36.025 447.872 37.2656 446.287 38.6594C444.961 37.9785 443.491 37.6239 442 37.625C440.456 37.625 439 38 437.712 38.6594C436.128 37.2656 434.419 36.025 432.722 35.2719C432.658 35.0196 432.625 34.7603 432.625 34.5C432.625 32.0136 433.613 29.629 435.371 27.8709C437.129 26.1127 439.514 25.125 442 25.125C444.486 25.125 446.871 26.1127 448.629 27.8709C450.387 29.629 451.375 32.0136 451.375 34.5ZM448.837 53.4125C450.467 51.675 451.375 49.3823 451.375 47C451.375 44.6177 450.467 42.325 448.837 40.5875C449.509 40.025 450.188 39.5062 450.859 39.0656C452.438 38.0344 453.662 37.625 454.5 37.625C456.986 37.625 459.371 38.6127 461.129 40.3709C462.887 42.129 463.875 44.5136 463.875 47C463.875 49.4864 462.887 51.871 461.129 53.6291C459.371 55.3873 456.986 56.375 454.5 56.375C453.662 56.375 452.438 55.9687 450.859 54.9344C450.157 54.4665 449.482 53.9584 448.837 53.4125ZM437.712 55.3406C439.039 56.0227 440.509 56.3785 442 56.3785C443.491 56.3785 444.961 56.0227 446.287 55.3406C447.872 56.7344 449.581 57.9719 451.281 58.7281C451.344 59.0135 451.375 59.2708 451.375 59.5C451.375 61.9864 450.387 64.371 448.629 66.1291C446.871 67.8873 444.486 68.875 442 68.875C439.514 68.875 437.129 67.8873 435.371 66.1291C433.613 64.371 432.625 61.9864 432.625 59.5C432.625 59.2708 432.656 59.0135 432.719 58.7281C434.419 57.9719 436.128 56.7344 437.712 55.3406ZM435.162 40.5875C433.533 42.325 432.625 44.6177 432.625 47C432.625 49.4813 433.587 51.7375 435.162 53.4125C434.518 53.9584 433.843 54.4665 433.141 54.9344C431.562 55.9656 430.337 56.375 429.5 56.375C427.014 56.375 424.629 55.3873 422.871 53.6291C421.113 51.871 420.125 49.4864 420.125 47C420.125 44.5136 421.113 42.129 422.871 40.3709C424.629 38.6127 427.014 37.625 429.5 37.625C430.337 37.625 431.562 38.0312 433.141 39.0656C433.812 39.5062 434.491 40.0219 435.162 40.5875ZM442 50.125C441.171 50.125 440.376 49.7958 439.79 49.2097C439.204 48.6237 438.875 47.8288 438.875 47C438.875 46.1712 439.204 45.3763 439.79 44.7903C440.376 44.2042 441.171 43.875 442 43.875C442.829 43.875 443.624 44.2042 444.21 44.7903C444.796 45.3763 445.125 46.1712 445.125 47C445.125 47.8288 444.796 48.6237 444.21 49.2097C443.624 49.7958 442.829 50.125 442 50.125Z" fill="black"/>
<path d="M805.312 41.75C804.898 41.75 804.501 41.9146 804.208 42.2076C803.915 42.5007 803.75 42.8981 803.75 43.3125V52.6875C803.75 53.1019 803.915 53.4993 804.208 53.7924C804.501 54.0854 804.898 54.25 805.312 54.25H814.688C815.102 54.25 815.499 54.0854 815.792 53.7924C816.085 53.4993 816.25 53.1019 816.25 52.6875V43.3125C816.25 42.8981 816.085 42.5007 815.792 42.2076C815.499 41.9146 815.102 41.75 814.688 41.75H805.312Z" fill="black"/>
<path d="M802.188 24.5625C802.188 24.1481 802.023 23.7507 801.73 23.4576C801.437 23.1646 801.039 23 800.625 23C800.211 23 799.813 23.1646 799.52 23.4576C799.227 23.7507 799.062 24.1481 799.062 24.5625V29.25C796.99 29.25 795.003 30.0731 793.538 31.5382C792.073 33.0034 791.25 34.9905 791.25 37.0625H786.562C786.148 37.0625 785.751 37.2271 785.458 37.5201C785.165 37.8132 785 38.2106 785 38.625C785 39.0394 785.165 39.4368 785.458 39.7299C785.751 40.0229 786.148 40.1875 786.562 40.1875H791.25V43.3125H786.562C786.148 43.3125 785.751 43.4771 785.458 43.7701C785.165 44.0632 785 44.4606 785 44.875C785 45.2894 785.165 45.6868 785.458 45.9799C785.751 46.2729 786.148 46.4375 786.562 46.4375H791.25V49.5625H786.562C786.148 49.5625 785.751 49.7271 785.458 50.0201C785.165 50.3132 785 50.7106 785 51.125C785 51.5394 785.165 51.9368 785.458 52.2299C785.751 52.5229 786.148 52.6875 786.562 52.6875H791.25V55.8125H786.562C786.148 55.8125 785.751 55.9771 785.458 56.2701C785.165 56.5632 785 56.9606 785 57.375C785 57.7894 785.165 58.1868 785.458 58.4799C785.751 58.7729 786.148 58.9375 786.562 58.9375H791.25C791.25 61.0095 792.073 62.9966 793.538 64.4618C795.003 65.9269 796.99 66.75 799.062 66.75V71.4375C799.062 71.8519 799.227 72.2493 799.52 72.5424C799.813 72.8354 800.211 73 800.625 73C801.039 73 801.437 72.8354 801.73 72.5424C802.023 72.2493 802.188 71.8519 802.188 71.4375V66.75H805.312V71.4375C805.312 71.8519 805.477 72.2493 805.77 72.5424C806.063 72.8354 806.461 73 806.875 73C807.289 73 807.687 72.8354 807.98 72.5424C808.273 72.2493 808.438 71.8519 808.438 71.4375V66.75H811.562V71.4375C811.562 71.8519 811.727 72.2493 812.02 72.5424C812.313 72.8354 812.711 73 813.125 73C813.539 73 813.937 72.8354 814.23 72.5424C814.523 72.2493 814.688 71.8519 814.688 71.4375V66.75H817.812V71.4375C817.812 71.8519 817.977 72.2493 818.27 72.5424C818.563 72.8354 818.961 73 819.375 73C819.789 73 820.187 72.8354 820.48 72.5424C820.773 72.2493 820.938 71.8519 820.938 71.4375V66.75C823.01 66.75 824.997 65.9269 826.462 64.4618C827.927 62.9966 828.75 61.0095 828.75 58.9375H833.438C833.852 58.9375 834.249 58.7729 834.542 58.4799C834.835 58.1868 835 57.7894 835 57.375C835 56.9606 834.835 56.5632 834.542 56.2701C834.249 55.9771 833.852 55.8125 833.438 55.8125H828.75V52.6875H833.438C833.852 52.6875 834.249 52.5229 834.542 52.2299C834.835 51.9368 835 51.5394 835 51.125C835 50.7106 834.835 50.3132 834.542 50.0201C834.249 49.7271 833.852 49.5625 833.438 49.5625H828.75V46.4375H833.438C833.852 46.4375 834.249 46.2729 834.542 45.9799C834.835 45.6868 835 45.2894 835 44.875C835 44.4606 834.835 44.0632 834.542 43.7701C834.249 43.4771 833.852 43.3125 833.438 43.3125H828.75V40.1875H833.438C833.852 40.1875 834.249 40.0229 834.542 39.7299C834.835 39.4368 835 39.0394 835 38.625C835 38.2106 834.835 37.8132 834.542 37.5201C834.249 37.2271 833.852 37.0625 833.438 37.0625H828.75C828.75 34.9905 827.927 33.0034 826.462 31.5382C824.997 30.0731 823.01 29.25 820.938 29.25V24.5625C820.938 24.1481 820.773 23.7507 820.48 23.4576C820.187 23.1646 819.789 23 819.375 23C818.961 23 818.563 23.1646 818.27 23.4576C817.977 23.7507 817.812 24.1481 817.812 24.5625V29.25H814.688V24.5625C814.688 24.1481 814.523 23.7507 814.23 23.4576C813.937 23.1646 813.539 23 813.125 23C812.711 23 812.313 23.1646 812.02 23.4576C811.727 23.7507 811.562 24.1481 811.562 24.5625V29.25H808.438V24.5625C808.438 24.1481 808.273 23.7507 807.98 23.4576C807.687 23.1646 807.289 23 806.875 23C806.461 23 806.063 23.1646 805.77 23.4576C805.477 23.7507 805.312 24.1481 805.312 24.5625V29.25H802.188V24.5625ZM805.312 38.625H814.688C815.931 38.625 817.123 39.1189 818.002 39.9979C818.881 40.877 819.375 42.0693 819.375 43.3125V52.6875C819.375 53.9307 818.881 55.123 818.002 56.0021C817.123 56.8811 815.931 57.375 814.688 57.375H805.312C804.069 57.375 802.877 56.8811 801.998 56.0021C801.119 55.123 800.625 53.9307 800.625 52.6875V43.3125C800.625 42.0693 801.119 40.877 801.998 39.9979C802.877 39.1189 804.069 38.625 805.312 38.625Z" fill="black"/>
<path d="M95.9821 23.082C96.4349 22.9584 96.9235 23.0021 97.3406 23.2034C97.7578 23.4047 98.0694 23.7473 98.2071 24.1559L99.2464 27.2391C102.148 25.5316 105.537 24.6229 109 24.6236C112.596 24.6236 115.95 25.5846 118.754 27.2391L119.789 24.1559C119.856 23.9519 119.967 23.7618 120.115 23.5966C120.264 23.4314 120.447 23.2944 120.654 23.1934C120.861 23.0923 121.089 23.0294 121.323 23.0081C121.558 22.9868 121.794 23.0076 122.02 23.0693C122.245 23.131 122.455 23.2324 122.637 23.3676C122.819 23.5028 122.969 23.6691 123.08 23.8571C123.19 24.045 123.258 24.2508 123.28 24.4626C123.302 24.6744 123.277 24.8881 123.207 25.0912L121.743 29.4515C125.021 32.4668 126.857 36.5236 126.857 40.749H128.643C129.116 40.749 129.571 40.5792 129.906 40.2767C130.24 39.9743 130.429 39.5642 130.429 39.1365V37.524C130.429 37.0963 130.617 36.6861 130.952 36.3837C131.286 36.0813 131.741 35.9114 132.214 35.9114C132.688 35.9114 133.142 36.0813 133.477 36.3837C133.812 36.6861 134 37.0963 134 37.524V39.1365C134 40.4195 133.436 41.65 132.431 42.5572C131.426 43.4645 130.064 43.9741 128.643 43.9741H126.857V47.1992H132.214C132.688 47.1992 133.142 47.3691 133.477 47.6715C133.812 47.974 134 48.3841 134 48.8118C134 49.2395 133.812 49.6496 133.477 49.952C133.142 50.2544 132.688 50.4243 132.214 50.4243H126.857V53.6494H128.643C130.064 53.6494 131.426 54.1591 132.431 55.0663C133.436 55.9736 134 57.204 134 58.4871V60.0996C134 60.5273 133.812 60.9375 133.477 61.2399C133.142 61.5423 132.688 61.7122 132.214 61.7122C131.741 61.7122 131.286 61.5423 130.952 61.2399C130.617 60.9375 130.429 60.5273 130.429 60.0996V58.4871C130.429 58.0594 130.24 57.6492 129.906 57.3468C129.571 57.0444 129.116 56.8745 128.643 56.8745H126.857C126.857 61.1513 124.976 65.2528 121.627 68.277C118.278 71.3011 113.736 73 109 73C104.264 73 99.722 71.3011 96.3731 68.277C93.0242 65.2528 91.1429 61.1513 91.1429 56.8745H89.3571C88.8835 56.8745 88.4293 57.0444 88.0945 57.3468C87.7596 57.6492 87.5714 58.0594 87.5714 58.4871V60.0996C87.5714 60.5273 87.3833 60.9375 87.0484 61.2399C86.7135 61.5423 86.2593 61.7122 85.7857 61.7122C85.3121 61.7122 84.8579 61.5423 84.523 61.2399C84.1881 60.9375 84 60.5273 84 60.0996V58.4871C84 57.204 84.5644 55.9736 85.5691 55.0663C86.5737 54.1591 87.9363 53.6494 89.3571 53.6494H91.1429V50.4243H85.7857C85.3121 50.4243 84.8579 50.2544 84.523 49.952C84.1881 49.6496 84 49.2395 84 48.8118C84 48.3841 84.1881 47.974 84.523 47.6715C84.8579 47.3691 85.3121 47.1992 85.7857 47.1992H91.1429V43.9741H89.3571C87.9363 43.9741 86.5737 43.4645 85.5691 42.5572C84.5644 41.65 84 40.4195 84 39.1365V37.524C84 37.0963 84.1881 36.6861 84.523 36.3837C84.8579 36.0813 85.3121 35.9114 85.7857 35.9114C86.2593 35.9114 86.7135 36.0813 87.0484 36.3837C87.3833 36.6861 87.5714 37.0963 87.5714 37.524V39.1365C87.5714 39.5642 87.7596 39.9743 88.0945 40.2767C88.4293 40.5792 88.8835 40.749 89.3571 40.749H91.1429C91.1429 36.35 93.0964 32.3606 96.2571 29.4515L94.7929 25.0912C94.656 24.6824 94.7044 24.2412 94.9273 23.8645C95.1503 23.4878 95.5297 23.2064 95.9821 23.082ZM94.7143 43.9741V56.8745C94.7131 60.0174 95.9825 63.0526 98.2841 65.4101C100.586 67.7676 103.761 69.2853 107.214 69.6782V43.9741H94.7143ZM110.786 43.9741V69.6782C114.239 69.2853 117.414 67.7676 119.716 65.4101C122.018 63.0526 123.287 60.0174 123.286 56.8745V43.9741H110.786ZM123.286 40.749C123.286 38.9335 122.861 37.1385 122.04 35.4812C121.219 33.824 120.02 32.3419 118.521 31.1318C115.906 29.0122 112.514 27.8426 109 27.8487C105.485 27.8418 102.091 29.0115 99.475 31.1318C97.9768 32.3421 96.7784 33.8244 95.958 35.4816C95.1377 37.1388 94.7138 38.9338 94.7143 40.749H123.286Z" fill="black"/>
</svg>
