<svg width="60" height="60" viewBox="0 0 60 60" fill="none" xmlns="http://www.w3.org/2000/svg">
<path d="M14.3786 0.0983679C14.9219 -0.0499362 15.5082 0.00246945 16.0087 0.244084C16.5093 0.485698 16.8833 0.896782 17.0486 1.38712L18.2957 5.08695C21.7775 3.03794 25.8441 1.94745 30 1.94828C34.3157 1.94828 38.34 3.10158 41.7043 5.08695L42.9471 1.38712C43.0272 1.14229 43.1601 0.914179 43.3382 0.715935C43.5163 0.517691 43.7361 0.353229 43.9849 0.232023C44.2337 0.110818 44.5066 0.0352645 44.7878 0.00971569C45.0691 -0.0158331 45.3532 0.00912775 45.6237 0.0831603C45.8943 0.157193 46.1459 0.278834 46.3642 0.441076C46.5824 0.603317 46.763 0.802953 46.8954 1.02848C47.0279 1.25401 47.1096 1.50098 47.1359 1.75515C47.1622 2.00932 47.1325 2.26568 47.0486 2.50945L45.2914 7.74184C49.2251 11.3602 51.4288 16.2283 51.4286 21.2989H53.5714C54.1397 21.2989 54.6848 21.095 55.0867 20.7321C55.4885 20.3692 55.7143 19.877 55.7143 19.3638V17.4287C55.7143 16.9155 55.94 16.4233 56.3419 16.0604C56.7438 15.6976 57.2888 15.4937 57.8571 15.4937C58.4255 15.4937 58.9705 15.6976 59.3724 16.0604C59.7742 16.4233 60 16.9155 60 17.4287V19.3638C60 20.9034 59.3227 22.38 58.1171 23.4687C56.9115 24.5574 55.2764 25.169 53.5714 25.169H51.4286V29.0391H57.8571C58.4255 29.0391 58.9705 29.243 59.3724 29.6058C59.7742 29.9687 60 30.4609 60 30.9741C60 31.4873 59.7742 31.9795 59.3724 32.3424C58.9705 32.7053 58.4255 32.9092 57.8571 32.9092H51.4286V36.7793H53.5714C55.2764 36.7793 56.9115 37.3909 58.1171 38.4796C59.3227 39.5683 60 41.0449 60 42.5845V44.5195C60 45.0328 59.7742 45.5249 59.3724 45.8878C58.9705 46.2507 58.4255 46.4546 57.8571 46.4546C57.2888 46.4546 56.7438 46.2507 56.3419 45.8878C55.94 45.5249 55.7143 45.0328 55.7143 44.5195V42.5845C55.7143 42.0713 55.4885 41.5791 55.0867 41.2162C54.6848 40.8533 54.1397 40.6494 53.5714 40.6494H51.4286C51.4286 45.7815 49.1709 50.7034 45.1523 54.3323C41.1337 57.9613 35.6832 60 30 60C24.3168 60 18.8663 57.9613 14.8477 54.3323C10.8291 50.7034 8.57143 45.7815 8.57143 40.6494H6.42857C5.86025 40.6494 5.31521 40.8533 4.91334 41.2162C4.51148 41.5791 4.28571 42.0713 4.28571 42.5845V44.5195C4.28571 45.0328 4.05995 45.5249 3.65809 45.8878C3.25622 46.2507 2.71118 46.4546 2.14286 46.4546C1.57454 46.4546 1.02949 46.2507 0.627628 45.8878C0.225765 45.5249 0 45.0328 0 44.5195V42.5845C0 41.0449 0.677294 39.5683 1.88289 38.4796C3.08848 37.3909 4.72361 36.7793 6.42857 36.7793H8.57143V32.9092H2.14286C1.57454 32.9092 1.02949 32.7053 0.627628 32.3424C0.225765 31.9795 0 31.4873 0 30.9741C0 30.4609 0.225765 29.9687 0.627628 29.6058C1.02949 29.243 1.57454 29.0391 2.14286 29.0391H8.57143V25.169H6.42857C4.72361 25.169 3.08848 24.5574 1.88289 23.4687C0.677294 22.38 0 20.9034 0 19.3638V17.4287C0 16.9155 0.225765 16.4233 0.627628 16.0604C1.02949 15.6976 1.57454 15.4937 2.14286 15.4937C2.71118 15.4937 3.25622 15.6976 3.65809 16.0604C4.05995 16.4233 4.28571 16.9155 4.28571 17.4287V19.3638C4.28571 19.877 4.51148 20.3692 4.91334 20.7321C5.31521 21.095 5.86025 21.2989 6.42857 21.2989H8.57143C8.57143 16.02 10.9157 11.2327 14.7086 7.74184L12.9514 2.50945C12.7872 2.01882 12.8452 1.4894 13.1128 1.03737C13.3804 0.585341 13.8356 0.247635 14.3786 0.0983679ZM12.8571 25.169V40.6494C12.8557 44.4209 14.379 48.0631 17.1409 50.8921C19.9028 53.7211 23.7134 55.5424 27.8571 56.0138V25.169H12.8571ZM32.1429 25.169V56.0138C36.2866 55.5424 40.0972 53.7211 42.8591 50.8921C45.621 48.0631 47.1443 44.4209 47.1429 40.6494V25.169H32.1429ZM47.1429 21.2989C47.1428 19.1202 46.6336 16.9661 45.6484 14.9774C44.6632 12.9887 43.2243 11.2102 41.4257 9.75817C38.2874 7.21467 34.2169 5.81111 30 5.8184C25.7816 5.81015 21.7094 7.21377 18.57 9.75817C16.7722 11.2106 15.3341 12.9893 14.3496 14.9779C13.3652 16.9666 12.8566 19.1205 12.8571 21.2989H47.1429Z" fill="#6D4C41"/>
</svg>
