<svg width="30" height="30" viewBox="0 0 30 30" fill="none" xmlns="http://www.w3.org/2000/svg">
<path d="M15 30C16.9891 30 18.8968 29.2098 20.3033 27.8033C21.7098 26.3968 22.5 24.4891 22.5 22.5C24.4891 22.5 26.3968 21.7098 27.8033 20.3033C29.2098 18.8968 30 16.9891 30 15C30 13.0109 29.2098 11.1032 27.8033 9.6967C26.3968 8.29018 24.4891 7.5 22.5 7.5C22.5 5.51088 21.7098 3.60322 20.3033 2.1967C18.8968 0.790176 16.9891 0 15 0C13.0109 0 11.1032 0.790176 9.6967 2.1967C8.29018 3.60322 7.5 5.51088 7.5 7.5C5.51088 7.5 3.60322 8.29018 2.1967 9.6967C0.790176 11.1032 0 13.0109 0 15C0 16.9891 0.790176 18.8968 2.1967 20.3033C3.60322 21.7098 5.51088 22.5 7.5 22.5C7.5 24.4891 8.29018 26.3968 9.6967 27.8033C11.1032 29.2098 13.0109 30 15 30ZM20.625 7.5C20.625 7.6375 20.6062 7.79188 20.5687 7.96313C19.5487 8.415 18.5231 9.15937 17.5725 9.99562C16.7766 9.58712 15.8947 9.37435 15 9.375C14.0738 9.375 13.2 9.6 12.4275 9.99562C11.4769 9.15937 10.4513 8.415 9.43312 7.96313C9.39454 7.81177 9.37501 7.65619 9.375 7.5C9.375 6.00816 9.96763 4.57742 11.0225 3.52252C12.0774 2.46763 13.5082 1.875 15 1.875C16.4918 1.875 17.9226 2.46763 18.9775 3.52252C20.0324 4.57742 20.625 6.00816 20.625 7.5ZM19.1025 18.8475C20.0804 17.805 20.6248 16.4294 20.625 15C20.6248 13.5706 20.0804 12.195 19.1025 11.1525C19.5056 10.815 19.9125 10.5037 20.3156 10.2394C21.2625 9.62062 21.9975 9.375 22.5 9.375C23.9918 9.375 25.4226 9.96763 26.4775 11.0225C27.5324 12.0774 28.125 13.5082 28.125 15C28.125 16.4918 27.5324 17.9226 26.4775 18.9775C25.4226 20.0324 23.9918 20.625 22.5 20.625C21.9975 20.625 21.2625 20.3812 20.3156 19.7606C19.894 19.4799 19.4889 19.175 19.1025 18.8475ZM12.4275 20.0044C13.2233 20.4136 14.1052 20.6271 15 20.6271C15.8948 20.6271 16.7767 20.4136 17.5725 20.0044C18.5231 20.8406 19.5487 21.5831 20.5687 22.0369C20.6062 22.2081 20.625 22.3625 20.625 22.5C20.625 23.9918 20.0324 25.4226 18.9775 26.4775C17.9226 27.5324 16.4918 28.125 15 28.125C13.5082 28.125 12.0774 27.5324 11.0225 26.4775C9.96763 25.4226 9.375 23.9918 9.375 22.5C9.375 22.3625 9.39375 22.2081 9.43125 22.0369C10.4513 21.5831 11.4769 20.8406 12.4275 20.0044ZM10.8975 11.1525C9.91959 12.195 9.37523 13.5706 9.375 15C9.375 16.4888 9.9525 17.8425 10.8975 18.8475C10.5111 19.175 10.106 19.4799 9.68437 19.7606C8.7375 20.3794 8.0025 20.625 7.5 20.625C6.00816 20.625 4.57742 20.0324 3.52252 18.9775C2.46763 17.9226 1.875 16.4918 1.875 15C1.875 13.5082 2.46763 12.0774 3.52252 11.0225C4.57742 9.96763 6.00816 9.375 7.5 9.375C8.0025 9.375 8.7375 9.61875 9.68437 10.2394C10.0875 10.5037 10.4944 10.8131 10.8975 11.1525ZM15 16.875C14.5027 16.875 14.0258 16.6775 13.6742 16.3258C13.3225 15.9742 13.125 15.4973 13.125 15C13.125 14.5027 13.3225 14.0258 13.6742 13.6742C14.0258 13.3225 14.5027 13.125 15 13.125C15.4973 13.125 15.9742 13.3225 16.3258 13.6742C16.6775 14.0258 16.875 14.5027 16.875 15C16.875 15.4973 16.6775 15.9742 16.3258 16.3258C15.9742 16.6775 15.4973 16.875 15 16.875Z" fill="white"/>
</svg>
