<svg width="30" height="30" viewBox="0 0 30 30" fill="none" xmlns="http://www.w3.org/2000/svg">
<g clip-path="url(#clip0_47_26)">
<path d="M12.1875 11.25C11.9389 11.25 11.7004 11.3488 11.5246 11.5246C11.3488 11.7004 11.25 11.9389 11.25 12.1875V17.8125C11.25 18.0611 11.3488 18.2996 11.5246 18.4754C11.7004 18.6512 11.9389 18.75 12.1875 18.75H17.8125C18.0611 18.75 18.2996 18.6512 18.4754 18.4754C18.6512 18.2996 18.75 18.0611 18.75 17.8125V12.1875C18.75 11.9389 18.6512 11.7004 18.4754 11.5246C18.2996 11.3488 18.0611 11.25 17.8125 11.25H12.1875Z" fill="white"/>
<path d="M10.3125 0.9375C10.3125 0.68886 10.2137 0.450403 10.0379 0.274587C9.8621 0.0987721 9.62364 0 9.375 0C9.12636 0 8.8879 0.0987721 8.71209 0.274587C8.53627 0.450403 8.4375 0.68886 8.4375 0.9375V3.75C7.1943 3.75 6.00201 4.24386 5.12294 5.12294C4.24386 6.00201 3.75 7.1943 3.75 8.4375H0.9375C0.68886 8.4375 0.450403 8.53627 0.274587 8.71209C0.0987721 8.8879 0 9.12636 0 9.375C0 9.62364 0.0987721 9.8621 0.274587 10.0379C0.450403 10.2137 0.68886 10.3125 0.9375 10.3125H3.75V12.1875H0.9375C0.68886 12.1875 0.450403 12.2863 0.274587 12.4621C0.0987721 12.6379 0 12.8764 0 13.125C0 13.3736 0.0987721 13.6121 0.274587 13.7879C0.450403 13.9637 0.68886 14.0625 0.9375 14.0625H3.75V15.9375H0.9375C0.68886 15.9375 0.450403 16.0363 0.274587 16.2121C0.0987721 16.3879 0 16.6264 0 16.875C0 17.1236 0.0987721 17.3621 0.274587 17.5379C0.450403 17.7137 0.68886 17.8125 0.9375 17.8125H3.75V19.6875H0.9375C0.68886 19.6875 0.450403 19.7863 0.274587 19.9621C0.0987721 20.1379 0 20.3764 0 20.625C0 20.8736 0.0987721 21.1121 0.274587 21.2879C0.450403 21.4637 0.68886 21.5625 0.9375 21.5625H3.75C3.75 22.8057 4.24386 23.998 5.12294 24.8771C6.00201 25.7561 7.1943 26.25 8.4375 26.25V29.0625C8.4375 29.3111 8.53627 29.5496 8.71209 29.7254C8.8879 29.9012 9.12636 30 9.375 30C9.62364 30 9.8621 29.9012 10.0379 29.7254C10.2137 29.5496 10.3125 29.3111 10.3125 29.0625V26.25H12.1875V29.0625C12.1875 29.3111 12.2863 29.5496 12.4621 29.7254C12.6379 29.9012 12.8764 30 13.125 30C13.3736 30 13.6121 29.9012 13.7879 29.7254C13.9637 29.5496 14.0625 29.3111 14.0625 29.0625V26.25H15.9375V29.0625C15.9375 29.3111 16.0363 29.5496 16.2121 29.7254C16.3879 29.9012 16.6264 30 16.875 30C17.1236 30 17.3621 29.9012 17.5379 29.7254C17.7137 29.5496 17.8125 29.3111 17.8125 29.0625V26.25H19.6875V29.0625C19.6875 29.3111 19.7863 29.5496 19.9621 29.7254C20.1379 29.9012 20.3764 30 20.625 30C20.8736 30 21.1121 29.9012 21.2879 29.7254C21.4637 29.5496 21.5625 29.3111 21.5625 29.0625V26.25C22.8057 26.25 23.998 25.7561 24.8771 24.8771C25.7561 23.998 26.25 22.8057 26.25 21.5625H29.0625C29.3111 21.5625 29.5496 21.4637 29.7254 21.2879C29.9012 21.1121 30 20.8736 30 20.625C30 20.3764 29.9012 20.1379 29.7254 19.9621C29.5496 19.7863 29.3111 19.6875 29.0625 19.6875H26.25V17.8125H29.0625C29.3111 17.8125 29.5496 17.7137 29.7254 17.5379C29.9012 17.3621 30 17.1236 30 16.875C30 16.6264 29.9012 16.3879 29.7254 16.2121C29.5496 16.0363 29.3111 15.9375 29.0625 15.9375H26.25V14.0625H29.0625C29.3111 14.0625 29.5496 13.9637 29.7254 13.7879C29.9012 13.6121 30 13.3736 30 13.125C30 12.8764 29.9012 12.6379 29.7254 12.4621C29.5496 12.2863 29.3111 12.1875 29.0625 12.1875H26.25V10.3125H29.0625C29.3111 10.3125 29.5496 10.2137 29.7254 10.0379C29.9012 9.8621 30 9.62364 30 9.375C30 9.12636 29.9012 8.8879 29.7254 8.71209C29.5496 8.53627 29.3111 8.4375 29.0625 8.4375H26.25C26.25 7.1943 25.7561 6.00201 24.8771 5.12294C23.998 4.24386 22.8057 3.75 21.5625 3.75V0.9375C21.5625 0.68886 21.4637 0.450403 21.2879 0.274587C21.1121 0.0987721 20.8736 0 20.625 0C20.3764 0 20.1379 0.0987721 19.9621 0.274587C19.7863 0.450403 19.6875 0.68886 19.6875 0.9375V3.75H17.8125V0.9375C17.8125 0.68886 17.7137 0.450403 17.5379 0.274587C17.3621 0.0987721 17.1236 0 16.875 0C16.6264 0 16.3879 0.0987721 16.2121 0.274587C16.0363 0.450403 15.9375 0.68886 15.9375 0.9375V3.75H14.0625V0.9375C14.0625 0.68886 13.9637 0.450403 13.7879 0.274587C13.6121 0.0987721 13.3736 0 13.125 0C12.8764 0 12.6379 0.0987721 12.4621 0.274587C12.2863 0.450403 12.1875 0.68886 12.1875 0.9375V3.75H10.3125V0.9375ZM12.1875 9.375H17.8125C18.5584 9.375 19.2738 9.67132 19.8012 10.1988C20.3287 10.7262 20.625 11.4416 20.625 12.1875V17.8125C20.625 18.5584 20.3287 19.2738 19.8012 19.8012C19.2738 20.3287 18.5584 20.625 17.8125 20.625H12.1875C11.4416 20.625 10.7262 20.3287 10.1988 19.8012C9.67132 19.2738 9.375 18.5584 9.375 17.8125V12.1875C9.375 11.4416 9.67132 10.7262 10.1988 10.1988C10.7262 9.67132 11.4416 9.375 12.1875 9.375Z" fill="white"/>
</g>
<defs>
<clipPath id="clip0_47_26">
<rect width="30" height="30" fill="white"/>
</clipPath>
</defs>
</svg>
