<svg width="30" height="30" viewBox="0 0 30 30" fill="none" xmlns="http://www.w3.org/2000/svg">
<path d="M7.18929 0.049184C7.46094 -0.0249681 7.75408 0.00123473 8.00436 0.122042C8.25465 0.242849 8.44164 0.448391 8.52429 0.693558L9.14786 2.54347C10.8888 1.51897 12.922 0.973723 15 0.974141C17.1579 0.974141 19.17 1.55079 20.8521 2.54347L21.4736 0.693558C21.5136 0.571143 21.58 0.457089 21.6691 0.357967C21.7581 0.258845 21.868 0.176614 21.9924 0.116012C22.1168 0.0554089 22.2533 0.0176322 22.3939 0.00485785C22.5346 -0.00791653 22.6766 0.00456388 22.8119 0.0415802C22.9471 0.0785964 23.073 0.139417 23.1821 0.220538C23.2912 0.301659 23.3815 0.401477 23.4477 0.514241C23.5139 0.627005 23.5548 0.750488 23.5679 0.877574C23.5811 1.00466 23.5662 1.13284 23.5243 1.25472L22.6457 3.87092C24.6125 5.6801 25.7144 8.11414 25.7143 10.6494H26.7857C27.0699 10.6494 27.3424 10.5475 27.5433 10.366C27.7443 10.1846 27.8571 9.9385 27.8571 9.6819V8.71437C27.8571 8.45777 27.97 8.21167 28.171 8.03022C28.3719 7.84878 28.6444 7.74684 28.9286 7.74684C29.2127 7.74684 29.4853 7.84878 29.6862 8.03022C29.8871 8.21167 30 8.45777 30 8.71437V9.6819C30 10.4517 29.6614 11.19 29.0586 11.7343C28.4558 12.2787 27.6382 12.5845 26.7857 12.5845H25.7143V14.5195H28.9286C29.2127 14.5195 29.4853 14.6215 29.6862 14.8029C29.8871 14.9844 30 15.2305 30 15.4871C30 15.7437 29.8871 15.9898 29.6862 16.1712C29.4853 16.3527 29.2127 16.4546 28.9286 16.4546H25.7143V18.3897H26.7857C27.6382 18.3897 28.4558 18.6955 29.0586 19.2398C29.6614 19.7841 30 20.5224 30 21.2922V22.2598C30 22.5164 29.8871 22.7625 29.6862 22.9439C29.4853 23.1254 29.2127 23.2273 28.9286 23.2273C28.6444 23.2273 28.3719 23.1254 28.171 22.9439C27.97 22.7625 27.8571 22.5164 27.8571 22.2598V21.2922C27.8571 21.0356 27.7443 20.7895 27.5433 20.6081C27.3424 20.4266 27.0699 20.3247 26.7857 20.3247H25.7143C25.7143 22.8908 24.5855 25.3517 22.5761 27.1662C20.5668 28.9806 17.8416 30 15 30C12.1584 30 9.43317 28.9806 7.42386 27.1662C5.41454 25.3517 4.28571 22.8908 4.28571 20.3247H3.21429C2.93012 20.3247 2.6576 20.4266 2.45667 20.6081C2.25574 20.7895 2.14286 21.0356 2.14286 21.2922V22.2598C2.14286 22.5164 2.02997 22.7625 1.82904 22.9439C1.62811 23.1254 1.35559 23.2273 1.07143 23.2273C0.787268 23.2273 0.514746 23.1254 0.313814 22.9439C0.112882 22.7625 0 22.5164 0 22.2598V21.2922C0 20.5224 0.338647 19.7841 0.941443 19.2398C1.54424 18.6955 2.3618 18.3897 3.21429 18.3897H4.28571V16.4546H1.07143C0.787268 16.4546 0.514746 16.3527 0.313814 16.1712C0.112882 15.9898 0 15.7437 0 15.4871C0 15.2305 0.112882 14.9844 0.313814 14.8029C0.514746 14.6215 0.787268 14.5195 1.07143 14.5195H4.28571V12.5845H3.21429C2.3618 12.5845 1.54424 12.2787 0.941443 11.7343C0.338647 11.19 0 10.4517 0 9.6819V8.71437C0 8.45777 0.112882 8.21167 0.313814 8.03022C0.514746 7.84878 0.787268 7.74684 1.07143 7.74684C1.35559 7.74684 1.62811 7.84878 1.82904 8.03022C2.02997 8.21167 2.14286 8.45777 2.14286 8.71437V9.6819C2.14286 9.9385 2.25574 10.1846 2.45667 10.366C2.6576 10.5475 2.93012 10.6494 3.21429 10.6494H4.28571C4.28571 8.01001 5.45786 5.61634 7.35429 3.87092L6.47571 1.25472C6.3936 1.00941 6.42262 0.7447 6.5564 0.518685C6.69018 0.292671 6.91779 0.123818 7.18929 0.049184ZM6.42857 12.5845V20.3247C6.42785 22.2104 7.18949 24.0315 8.57045 25.4461C9.95142 26.8606 11.8567 27.7712 13.9286 28.0069V12.5845H6.42857ZM16.0714 12.5845V28.0069C18.1433 27.7712 20.0486 26.8606 21.4295 25.4461C22.8105 24.0315 23.5721 22.2104 23.5714 20.3247V12.5845H16.0714ZM23.5714 10.6494C23.5714 9.56012 23.3168 8.48307 22.8242 7.48872C22.3316 6.49437 21.6122 5.60511 20.7129 4.87909C19.1437 3.60733 17.1085 2.90555 15 2.9092C12.8908 2.90508 10.8547 3.60689 9.285 4.87909C8.3861 5.60529 7.66703 6.49463 7.17481 7.48897C6.6826 8.48331 6.42831 9.56026 6.42857 10.6494H23.5714Z" fill="white"/>
</svg>
