<svg width="30" height="30" viewBox="0 0 30 30" fill="none" xmlns="http://www.w3.org/2000/svg">
<path d="M2.30769 2C1.69565 2 1.10868 2.21071 0.675907 2.58579C0.243131 2.96086 0 3.46957 0 4V6C0 6.53043 0.243131 7.03914 0.675907 7.41421C1.10868 7.78929 1.69565 8 2.30769 8H3.46154V26C3.46154 27.0609 3.9478 28.0783 4.81335 28.8284C5.67891 29.5786 6.85285 30 8.07692 30H21.9231C23.1472 30 24.3211 29.5786 25.1866 28.8284C26.0522 28.0783 26.5385 27.0609 26.5385 26V8H27.6923C28.3043 8 28.8913 7.78929 29.3241 7.41421C29.7569 7.03914 30 6.53043 30 6V4C30 3.46957 29.7569 2.96086 29.3241 2.58579C28.8913 2.21071 28.3043 2 27.6923 2H19.6154C19.6154 1.46957 19.3723 0.960859 18.9395 0.585786C18.5067 0.210714 17.9197 0 17.3077 0L12.6923 0C12.0803 0 11.4933 0.210714 11.0605 0.585786C10.6277 0.960859 10.3846 1.46957 10.3846 2H2.30769ZM9.23077 10C9.53679 10 9.83027 10.1054 10.0467 10.2929C10.263 10.4804 10.3846 10.7348 10.3846 11V25C10.3846 25.2652 10.263 25.5196 10.0467 25.7071C9.83027 25.8946 9.53679 26 9.23077 26C8.92475 26 8.63127 25.8946 8.41488 25.7071C8.19849 25.5196 8.07692 25.2652 8.07692 25V11C8.07692 10.7348 8.19849 10.4804 8.41488 10.2929C8.63127 10.1054 8.92475 10 9.23077 10ZM15 10C15.306 10 15.5995 10.1054 15.8159 10.2929C16.0323 10.4804 16.1538 10.7348 16.1538 11V25C16.1538 25.2652 16.0323 25.5196 15.8159 25.7071C15.5995 25.8946 15.306 26 15 26C14.694 26 14.4005 25.8946 14.1841 25.7071C13.9677 25.5196 13.8462 25.2652 13.8462 25V11C13.8462 10.7348 13.9677 10.4804 14.1841 10.2929C14.4005 10.1054 14.694 10 15 10ZM21.9231 11V25C21.9231 25.2652 21.8015 25.5196 21.5851 25.7071C21.3687 25.8946 21.0753 26 20.7692 26C20.4632 26 20.1697 25.8946 19.9533 25.7071C19.7369 25.5196 19.6154 25.2652 19.6154 25V11C19.6154 10.7348 19.7369 10.4804 19.9533 10.2929C20.1697 10.1054 20.4632 10 20.7692 10C21.0753 10 21.3687 10.1054 21.5851 10.2929C21.8015 10.4804 21.9231 10.7348 21.9231 11Z" fill="#6D4C41"/>
</svg>
