<svg width="30" height="30" viewBox="0 0 30 30" fill="none" xmlns="http://www.w3.org/2000/svg">
<path d="M19.1201 3.31523C19.1857 3.10016 19.1915 2.86701 19.1365 2.64803C19.0816 2.42906 18.9686 2.23507 18.8133 2.09293L18.472 1.80933C17.2743 0.901004 15.914 0.312745 14.4915 0.0880029C11.9164 -0.303309 8.63575 0.503496 5.4452 4.68921H3.42427C3.29815 4.68924 3.17328 4.7178 3.0568 4.77326C2.94033 4.82871 2.83455 4.90997 2.74551 5.01237L0.279737 7.84169C0.100594 8.04773 0 8.32679 0 8.61772C0 8.90865 0.100594 9.18771 0.279737 9.39375L5.20936 15.0634C5.29842 15.1657 5.40421 15.2469 5.52068 15.3024C5.63715 15.3578 5.76202 15.3863 5.88812 15.3863C6.01422 15.3863 6.13908 15.3578 6.25556 15.3024C6.37203 15.2469 6.47782 15.1657 6.56688 15.0634L9.03265 12.2275C9.21186 12.0215 9.31253 11.7424 9.31259 11.4514V10.0467L25.3938 29.5529C25.4757 29.6803 25.5806 29.7859 25.7013 29.8625C25.8221 29.9392 25.9559 29.985 26.0935 29.9969C26.2311 30.0088 26.3694 29.9865 26.4988 29.9315C26.6282 29.8765 26.7457 29.7901 26.8433 29.6782L29.7194 26.3806C29.8933 26.1812 29.9936 25.9127 29.9997 25.6308C30.0058 25.3488 29.9171 25.075 29.752 24.8659L12.2481 5.89393C13.6804 4.89146 15.6457 4.04948 18.2151 4.04948C18.4137 4.04965 18.6074 3.97909 18.7695 3.84756C18.9316 3.71603 19.0541 3.53002 19.1201 3.31523Z" fill="#6D4C41"/>
</svg>
