<svg width="25" height="25" viewBox="0 0 25 25" fill="none" xmlns="http://www.w3.org/2000/svg">
<path d="M15.2574 8.125V5.9375C15.2574 5.35734 15.0249 4.80094 14.6113 4.3907C14.1976 3.98047 13.6365 3.75 13.0515 3.75H5.33088C4.74585 3.75 4.18477 3.98047 3.77109 4.3907C3.3574 4.80094 3.125 5.35734 3.125 5.9375V19.0625C3.125 19.6427 3.3574 20.1991 3.77109 20.6093C4.18477 21.0195 4.74585 21.25 5.33088 21.25H13.0515C13.6365 21.25 14.1976 21.0195 14.6113 20.6093C15.0249 20.1991 15.2574 19.6427 15.2574 19.0625V16.875M8.63971 12.5H21.875M21.875 12.5L18.5662 9.21875M21.875 12.5L18.5662 15.7812" stroke="#DC2626" stroke-width="2" stroke-linecap="round" stroke-linejoin="round"/>
</svg>
