<svg width="30" height="30" viewBox="0 0 30 30" fill="none" xmlns="http://www.w3.org/2000/svg">
<path d="M15 1.875C16.4208 1.875 17.7834 2.36886 18.7881 3.24794C19.7927 4.12701 20.3571 5.3193 20.3571 6.5625V7.5H9.64286V6.5625C9.64286 5.3193 10.2073 4.12701 11.2119 3.24794C12.2166 2.36886 13.5792 1.875 15 1.875ZM22.5 7.5V6.5625C22.5 4.82202 21.7098 3.15282 20.3033 1.92211C18.8968 0.691404 16.9891 0 15 0C13.0109 0 11.1032 0.691404 9.6967 1.92211C8.29018 3.15282 7.5 4.82202 7.5 6.5625V7.5H0V26.25C0 27.2446 0.451529 28.1984 1.25526 28.9016C2.05898 29.6049 3.14907 30 4.28571 30H25.7143C26.8509 30 27.941 29.6049 28.7447 28.9016C29.5485 28.1984 30 27.2446 30 26.25V7.5H22.5ZM2.14286 9.375H27.8571V26.25C27.8571 26.7473 27.6314 27.2242 27.2295 27.5758C26.8277 27.9275 26.2826 28.125 25.7143 28.125H4.28571C3.71739 28.125 3.17235 27.9275 2.77049 27.5758C2.36862 27.2242 2.14286 26.7473 2.14286 26.25V9.375Z" fill="black"/>
</svg>
