<svg width="25" height="25" viewBox="0 0 70 70" fill="none" xmlns="http://www.w3.org/2000/svg">
<rect x="-0.00463867" width="70" height="70" rx="35" fill="#DBEAFE"/>
<g clip-path="url(#clip0_705_666)">
<path d="M34.4954 17C24.8354 17 16.9954 24.84 16.9954 34.5C16.9954 44.16 24.8354 52 34.4954 52C44.1554 52 51.9954 44.16 51.9954 34.5C51.9954 24.84 44.1554 17 34.4954 17ZM36.9629 45.1575V46.1725C36.9629 47.45 35.9129 48.5 34.6354 48.5H34.6179C33.3404 48.5 32.2904 47.45 32.2904 46.1725V45.1225C29.9629 44.6325 27.8979 43.355 27.0229 41.2025C26.6204 40.24 27.3729 39.1725 28.4229 39.1725H28.8429C29.4904 39.1725 30.0154 39.61 30.2604 40.2225C30.7679 41.535 32.0979 42.445 34.6529 42.445C38.0829 42.445 38.8529 40.73 38.8529 39.6625C38.8529 38.21 38.0829 36.845 34.1804 35.9175C29.8404 34.8675 26.8654 33.0825 26.8654 29.495C26.8654 26.485 29.2979 24.525 32.3079 23.8775V22.8275C32.3079 21.55 33.3579 20.5 34.6354 20.5H34.6529C35.9304 20.5 36.9804 21.55 36.9804 22.8275V23.9125C39.3954 24.5075 40.9179 26.0125 41.5829 27.8675C41.9329 28.83 41.1979 29.845 40.1654 29.845H39.7104C39.0629 29.845 38.5379 29.39 38.3629 28.76C37.9604 27.43 36.8579 26.5725 34.6529 26.5725C32.0279 26.5725 30.4529 27.7625 30.4529 29.4425C30.4529 30.9125 31.5904 31.875 35.1254 32.785C38.6604 33.695 42.4404 35.2175 42.4404 39.6275C42.4054 42.83 40.0079 44.58 36.9629 45.1575Z" fill="#2563EB"/>
</g>
<defs>
<clipPath id="clip0_705_666">
<rect width="53" height="53" fill="white" transform="translate(7.99536 8)"/>
</clipPath>
</defs>
</svg>
