<svg width="60" height="60" viewBox="0 0 60 60" fill="none" xmlns="http://www.w3.org/2000/svg">
<path d="M56.25 60C56.25 60 60 60 60 55C60 50 56.25 35 41.25 35C26.25 35 22.5 50 22.5 55C22.5 60 26.25 60 26.25 60H56.25ZM26.3325 55L26.25 54.98C26.2537 53.66 26.8762 49.83 29.1 46.38C31.17 43.145 34.8075 40 41.25 40C47.6887 40 51.3262 43.15 53.4 46.38C55.6237 49.83 56.2425 53.665 56.25 54.98L56.22 54.99L56.1675 55H26.3325ZM41.25 25C43.2391 25 45.1468 23.9464 46.5533 22.0711C47.9598 20.1957 48.75 17.6522 48.75 15C48.75 12.3478 47.9598 9.8043 46.5533 7.92893C45.1468 6.05357 43.2391 5 41.25 5C39.2609 5 37.3532 6.05357 35.9467 7.92893C34.5402 9.8043 33.75 12.3478 33.75 15C33.75 17.6522 34.5402 20.1957 35.9467 22.0711C37.3532 23.9464 39.2609 25 41.25 25ZM52.5 15C52.5 16.9698 52.209 18.9204 51.6436 20.7403C51.0783 22.5601 50.2496 24.2137 49.205 25.6066C48.1603 26.9995 46.9201 28.1044 45.5552 28.8582C44.1903 29.612 42.7274 30 41.25 30C39.7726 30 38.3097 29.612 36.9448 28.8582C35.5799 28.1044 34.3397 26.9995 33.295 25.6066C32.2504 24.2137 31.4217 22.5601 30.8564 20.7403C30.291 18.9204 30 16.9698 30 15C30 11.0218 31.1853 7.20644 33.295 4.3934C35.4048 1.58035 38.2663 0 41.25 0C44.2337 0 47.0952 1.58035 49.205 4.3934C51.3147 7.20644 52.5 11.0218 52.5 15ZM26.01 36.4C24.5091 35.7746 22.9631 35.3606 21.3975 35.165C20.5176 35.0506 19.634 34.9955 18.75 35C3.75 35 0 50 0 55C0 58.3333 1.25 60 3.75 60H19.56C19.0043 58.439 18.7271 56.7277 18.75 55C18.75 49.95 20.1637 44.79 22.8375 40.48C23.7488 39.01 24.81 37.635 26.01 36.4ZM18.45 40C16.232 44.4472 15.0332 49.6594 15 55H3.75C3.75 53.7 4.365 49.85 6.6 46.38C8.64375 43.2 12.195 40.1 18.45 40.005V40ZM5.625 17.5C5.625 13.5218 6.81027 9.70644 8.92005 6.8934C11.0298 4.08035 13.8913 2.5 16.875 2.5C19.8587 2.5 22.7202 4.08035 24.83 6.8934C26.9397 9.70644 28.125 13.5218 28.125 17.5C28.125 21.4782 26.9397 25.2936 24.83 28.1066C22.7202 30.9196 19.8587 32.5 16.875 32.5C13.8913 32.5 11.0298 30.9196 8.92005 28.1066C6.81027 25.2936 5.625 21.4782 5.625 17.5ZM16.875 7.5C14.8859 7.5 12.9782 8.55357 11.5717 10.4289C10.1652 12.3043 9.375 14.8478 9.375 17.5C9.375 20.1522 10.1652 22.6957 11.5717 24.5711C12.9782 26.4464 14.8859 27.5 16.875 27.5C18.8641 27.5 20.7718 26.4464 22.1783 24.5711C23.5848 22.6957 24.375 20.1522 24.375 17.5C24.375 14.8478 23.5848 12.3043 22.1783 10.4289C20.7718 8.55357 18.8641 7.5 16.875 7.5Z" fill="#6D4C41"/>
</svg>
