<svg width="40" height="40" viewBox="0 0 40 40" fill="none" xmlns="http://www.w3.org/2000/svg">
<path d="M17.5 40C17.5 40 15 40 15 36.6667C15 33.3333 17.5 23.3333 27.5 23.3333C37.5 23.3333 40 33.3333 40 36.6667C40 40 37.5 40 37.5 40H17.5ZM27.5 20C29.4891 20 31.3968 18.9464 32.8033 17.0711C34.2098 15.1957 35 12.6522 35 10C35 7.34784 34.2098 4.8043 32.8033 2.92893C31.3968 1.05357 29.4891 0 27.5 0C25.5109 0 23.6032 1.05357 22.1967 2.92893C20.7902 4.8043 20 7.34784 20 10C20 12.6522 20.7902 15.1957 22.1967 17.0711C23.6032 18.9464 25.5109 20 27.5 20ZM13.04 40C12.6696 38.9593 12.4847 37.8184 12.5 36.6667C12.5 32.15 14.2 27.5 17.34 24.2667C15.773 23.6215 14.1399 23.3066 12.5 23.3333C2.5 23.3333 0 33.3333 0 36.6667C0 40 2.5 40 2.5 40H13.04ZM11.25 20C12.9076 20 14.4973 19.122 15.6694 17.5592C16.8415 15.9964 17.5 13.8768 17.5 11.6667C17.5 9.45653 16.8415 7.33691 15.6694 5.77411C14.4973 4.21131 12.9076 3.33333 11.25 3.33333C9.5924 3.33333 8.00268 4.21131 6.83058 5.77411C5.65848 7.33691 5 9.45653 5 11.6667C5 13.8768 5.65848 15.9964 6.83058 17.5592C8.00268 19.122 9.5924 20 11.25 20Z" fill="white"/>
</svg>
