<svg width="60" height="60" viewBox="0 0 40 40" fill="none" xmlns="http://www.w3.org/2000/svg">
<path d="M20 40C22.6522 40 25.1957 38.9464 27.0711 37.0711C28.9464 35.1957 30 32.6522 30 30C32.6522 30 35.1957 28.9464 37.0711 27.0711C38.9464 25.1957 40 22.6522 40 20C40 17.3478 38.9464 14.8043 37.0711 12.9289C35.1957 11.0536 32.6522 10 30 10C30 7.34784 28.9464 4.8043 27.0711 2.92893C25.1957 1.05357 22.6522 0 20 0C17.3478 0 14.8043 1.05357 12.9289 2.92893C11.0536 4.8043 10 7.34784 10 10C7.34784 10 4.8043 11.0536 2.92893 12.9289C1.05357 14.8043 0 17.3478 0 20C0 22.6522 1.05357 25.1957 2.92893 27.0711C4.8043 28.9464 7.34784 30 10 30C10 32.6522 11.0536 35.1957 12.9289 37.0711C14.8043 38.9464 17.3478 40 20 40ZM27.5 10C27.5 10.1833 27.475 10.3892 27.425 10.6175C26.065 11.22 24.6975 12.2125 23.43 13.3275C22.3687 12.7828 21.1929 12.4991 20 12.5C18.765 12.5 17.6 12.8 16.57 13.3275C15.3025 12.2125 13.935 11.22 12.5775 10.6175C12.526 10.4157 12.5 10.2083 12.5 10C12.5 8.01088 13.2902 6.10322 14.6967 4.6967C16.1032 3.29018 18.0109 2.5 20 2.5C21.9891 2.5 23.8968 3.29018 25.3033 4.6967C26.7098 6.10322 27.5 8.01088 27.5 10ZM25.47 25.13C26.7739 23.74 27.4997 21.9058 27.5 20C27.4997 18.0942 26.7739 16.26 25.47 14.87C26.0075 14.42 26.55 14.005 27.0875 13.6525C28.35 12.8275 29.33 12.5 30 12.5C31.9891 12.5 33.8968 13.2902 35.3033 14.6967C36.7098 16.1032 37.5 18.0109 37.5 20C37.5 21.9891 36.7098 23.8968 35.3033 25.3033C33.8968 26.7098 31.9891 27.5 30 27.5C29.33 27.5 28.35 27.175 27.0875 26.3475C26.5253 25.9732 25.9852 25.5667 25.47 25.13ZM16.57 26.6725C17.631 27.2181 18.8069 27.5028 20 27.5028C21.1931 27.5028 22.369 27.2181 23.43 26.6725C24.6975 27.7875 26.065 28.7775 27.425 29.3825C27.475 29.6108 27.5 29.8167 27.5 30C27.5 31.9891 26.7098 33.8968 25.3033 35.3033C23.8968 36.7098 21.9891 37.5 20 37.5C18.0109 37.5 16.1032 36.7098 14.6967 35.3033C13.2902 33.8968 12.5 31.9891 12.5 30C12.5 29.8167 12.525 29.6108 12.575 29.3825C13.935 28.7775 15.3025 27.7875 16.57 26.6725ZM14.53 14.87C13.2261 16.26 12.5003 18.0942 12.5 20C12.5 21.985 13.27 23.79 14.53 25.13C14.0148 25.5667 13.4747 25.9732 12.9125 26.3475C11.65 27.1725 10.67 27.5 10 27.5C8.01088 27.5 6.10322 26.7098 4.6967 25.3033C3.29018 23.8968 2.5 21.9891 2.5 20C2.5 18.0109 3.29018 16.1032 4.6967 14.6967C6.10322 13.2902 8.01088 12.5 10 12.5C10.67 12.5 11.65 12.825 12.9125 13.6525C13.45 14.005 13.9925 14.4175 14.53 14.87ZM20 22.5C19.337 22.5 18.7011 22.2366 18.2322 21.7678C17.7634 21.2989 17.5 20.663 17.5 20C17.5 19.337 17.7634 18.7011 18.2322 18.2322C18.7011 17.7634 19.337 17.5 20 17.5C20.663 17.5 21.2989 17.7634 21.7678 18.2322C22.2366 18.7011 22.5 19.337 22.5 20C22.5 20.663 22.2366 21.2989 21.7678 21.7678C21.2989 22.2366 20.663 22.5 20 22.5Z" fill="#6D4C41"/>
</svg>
