<svg width="30" height="30" viewBox="0 0 30 30" fill="none" xmlns="http://www.w3.org/2000/svg">
<path d="M30 27.8571C30 27.2888 29.8683 26.7438 29.6339 26.3419C29.3995 25.9401 29.0815 25.7143 28.75 25.7143H21.25C20.9185 25.7143 20.6005 25.9401 20.3661 26.3419C20.1317 26.7438 20 27.2888 20 27.8571C20 28.4255 20.1317 28.9705 20.3661 29.3724C20.6005 29.7742 20.9185 30 21.25 30H28.75C29.0815 30 29.3995 29.7742 29.6339 29.3724C29.8683 28.9705 30 28.4255 30 27.8571ZM30 15C30 14.4317 29.8683 13.8866 29.6339 13.4848C29.3995 13.0829 29.0815 12.8571 28.75 12.8571H11.25C10.9185 12.8571 10.6005 13.0829 10.3661 13.4848C10.1317 13.8866 10 14.4317 10 15C10 15.5683 10.1317 16.1134 10.3661 16.5152C10.6005 16.9171 10.9185 17.1429 11.25 17.1429H28.75C29.0815 17.1429 29.3995 16.9171 29.6339 16.5152C29.8683 16.1134 30 15.5683 30 15ZM30 2.14286C30 1.57454 29.8683 1.02949 29.6339 0.627629C29.3995 0.225765 29.0815 0 28.75 0H1.25C0.918479 0 0.600537 0.225765 0.366117 0.627629C0.131696 1.02949 0 1.57454 0 2.14286C0 2.71118 0.131696 3.25622 0.366117 3.65809C0.600537 4.05995 0.918479 4.28571 1.25 4.28571H28.75C29.0815 4.28571 29.3995 4.05995 29.6339 3.65809C29.8683 3.25622 30 2.71118 30 2.14286Z" fill="white"/>
</svg>
